*
G04 Job   : Z:\Rest\ESPto433\V2\PCB\V2.pcb*
G04 User  : DESKTOP-K7BKDL1:life*
G04 Layer : Layer1Top.gbr*
G04 Date  : Mon Oct 04 20:14:53 2021*
%ICAS*%
%MOIN*%
%FSLAX26Y26*%
%OFA0.0000B0.0000*%
G90*
G74*
%AMVB_RECTANGLE*
21,1,$1,$2,0,0,$3*
%
%ADD11C,0.00787*%
%ADD10C,0.00984*%
%ADD13C,0.01181*%
%ADD12C,0.01969*%
%ADD15C,0.03150*%
%ADD26C,0.03346*%
%ADD14C,0.03937*%
%ADD70C,0.05315*%
%ADD16C,0.05906*%
%ADD23C,0.07087*%
%ADD27O,0.07480X0.03543*%
%ADD19VB_RECTANGLE,0.05315X0.05315X180.00000*%
%ADD17VB_RECTANGLE,0.05906X0.05906X270.00000*%
%ADD28VB_RECTANGLE,0.01811X0.05394X90.00000*%
%ADD30VB_RECTANGLE,0.03898X0.07520X90.00000*%
%ADD71VB_RECTANGLE,0.03937X0.04331X90.00000*%
%ADD21VB_RECTANGLE,0.04331X0.01772X270.00000*%
%ADD25VB_RECTANGLE,0.04724X0.08661X90.00000*%
%ADD29VB_RECTANGLE,0.05591X0.06102X90.00000*%
%ADD22VB_RECTANGLE,0.05906X0.05118X180.00000*%
%ADD20VB_RECTANGLE,0.05906X0.05118X90.00000*%
%ADD72VB_RECTANGLE,0.06496X0.05079X90.00000*%
%ADD73VB_RECTANGLE,0.07087X0.07520X90.00000*%
%ADD18VB_RECTANGLE,0.11024X0.16535X0.00000*%
%ADD24VB_RECTANGLE,0.14173X0.08661X90.00000*%
G01*
G36*
X50521Y1912531D02*
G02X55442Y1917453I4921D01*
G01X213582*
Y1405511*
G03X250000Y1369093I36417*
X286416Y1405511J36417*
X250000Y1441928I36416*
X213582Y1405511J36417*
G01Y1917453*
X351377*
Y1378936*
G03X361220Y1369093I9842*
G01X414370*
G03X424212Y1378936J9842*
G01Y1432086*
G03X414370Y1441928I9842*
G01X361220*
G03X351377Y1432086J9842*
G01Y1917453*
X1125000*
G02X1129920Y1912531J4922*
G01Y1726517*
G02X1126640Y1721877I4920*
G03X1120078Y1712597I3280J9280*
G01Y1665353*
G03X1126640Y1656075I9842*
G02X1129920Y1651435I1640J4640*
G01Y1545415*
G02X1126640Y1540775I4920*
G03X1120078Y1531495I3280J9280*
G01Y1484251*
G03X1126640Y1474971I9842*
G02X1129920Y1470332I1640J4638*
G01Y1252952*
G02X1125000Y1248030I4920*
G01X644421*
G02X640941Y1249472J4922*
G01X629281Y1261132*
G03X618841Y1265456I10440J10440*
G01X367735*
G03X357295Y1261132J14763*
G01X345635Y1249472*
G02X342155Y1248030I3480J3480*
G01X148688*
G02X143767Y1252952J4922*
G01Y1334897*
G03X138001Y1348816I19685*
G01X51963Y1434855*
G02X50521Y1438335I3479J3480*
G01Y1912531*
G37*
G54D10*
X74870Y997216D02*
X164370Y1086716D01*
X266396*
X351540Y817720D02*
X500247D01*
X610687Y928161*
Y1122360*
X596330Y1136716*
X516396*
X466396Y1186716*
X366141Y1405511D02*
X346456D01*
X366396Y1186716D02*
X410908Y1142205D01*
Y980842*
X409800Y979735*
X387795Y1383857D02*
Y1364172D01*
Y1427165D02*
Y1446850D01*
X409448Y1405511D02*
X429133D01*
X409800Y979735D02*
X445830Y943705D01*
Y939767*
X409800Y979735D02*
X387570D01*
X351540Y943705*
Y939767*
X566396Y1186716D02*
X610687D01*
X630372Y1167031*
Y920007*
X483795Y773430*
X198656*
X74870Y897216*
X778735Y1137021D02*
Y989655D01*
X926856Y841535*
X1320466*
X1414955Y936023*
X1711736*
X1712720Y935038*
X1789370*
X778735Y1202151D02*
X667383D01*
X618841Y1250692*
X367735*
X322105Y1205062*
Y1131007*
X366396Y1086716*
X866141Y1171357D02*
X670337D01*
X610687Y1231007*
X448050*
X422105Y1205062*
Y1168370*
X448050Y1142425*
X454980*
X466396Y1131007*
Y1086716*
X958562Y1169290D02*
X915353D01*
X913286Y1171357*
X866141*
X1009842Y1066928D02*
Y941042D01*
X958562Y889763*
Y885826*
X1009842Y1066928D02*
Y1114075D01*
X958562Y1165353*
Y1169290*
X1033562Y885826D02*
Y942027D01*
X1035432Y943897*
Y980315*
X1257971Y787401D02*
X1761775D01*
X1287401Y1167420D02*
X1212906D01*
X1067112Y1021626*
X1044265*
X1035432Y1012795*
Y980315*
X1425658Y1299930D02*
X1394340Y1268610D01*
X1392528*
X1291338Y1167420*
X1287401*
X1828775Y787401D02*
Y821850D01*
X1829336Y822411*
Y895071*
X1789370Y935038*
G54D11*
X1499645Y1883306D02*
X1499172Y1883188D01*
X1498936Y1882952*
X1498760Y1882538*
X1498700Y1882066*
X1498760Y1881653*
X1498936Y1881240*
X1499172Y1880945*
X1499645Y1880885*
X1522676*
X1523090Y1880945*
X1523445Y1881240*
X1523621Y1881653*
X1523680Y1882066*
X1523621Y1882538*
X1523445Y1882952*
X1523090Y1883188*
X1522676Y1883306*
X1512282*
Y1938760*
X1512223Y1939172*
X1512046Y1939468*
X1511751Y1939645*
X1511338Y1939705*
X1511042Y1939763*
X1510747*
X1510511Y1939645*
X1510275Y1939408*
X1498760Y1923227*
X1498582Y1922815*
Y1922401*
X1498760Y1922046*
X1499055Y1921751*
X1499408Y1921515*
X1499822Y1921397*
X1500058*
X1500235Y1921456*
X1500530Y1921810*
X1509980Y1935038*
Y1883306*
X1499645*
X1545412Y1931613D02*
X1555335Y1939705D01*
X1555570Y1939763*
X1555747Y1939822*
X1555806Y1939881*
X1556042Y1939940*
X1575945*
X1576180Y1939881*
X1576240*
X1576298Y1939822*
X1576475Y1939763*
X1576712Y1939705*
X1586633Y1931613*
X1586810Y1931318*
X1586870Y1931082*
X1586987Y1930905*
X1587046Y1930668*
Y1890156*
X1586987Y1889980*
X1586870Y1889566*
X1586810Y1889448*
X1586633Y1889212*
X1576712Y1881121*
X1576475Y1881062*
X1576357Y1881003*
X1576240Y1880945*
X1576121Y1880885*
X1575945*
X1556042*
X1555806Y1880945*
X1555570Y1881003*
X1555335Y1881121*
X1545412Y1889212*
X1545295Y1889330*
X1545176Y1889390*
X1545058Y1889566*
X1544940Y1889980*
X1544881Y1890156*
Y1930668*
X1544940Y1930905*
X1545058Y1931082*
X1545176Y1931318*
X1545412Y1931613*
X1547302Y1930078D02*
Y1890747D01*
X1550786Y1887795*
X1579370Y1934390*
X1575471Y1937520*
X1556397*
X1547302Y1930078*
X1552676Y1886260D02*
X1556397Y1883306D01*
X1575471*
X1584685Y1890747*
Y1930078*
X1581200Y1932853*
X1552676Y1886260*
X1612205Y1888326D02*
Y1881890D01*
X1612263Y1881593*
X1612322Y1881416*
X1612440Y1881298*
X1612558Y1881240*
X1612795Y1880945*
X1613150Y1880885*
X1619645*
X1620000Y1880945*
X1620295Y1881240*
X1620590Y1881475*
X1620650Y1881890*
Y1888326*
X1620590Y1888740*
X1620295Y1888975*
X1620000Y1889271*
X1619645Y1889330*
X1613150*
X1612795Y1889271*
X1612558Y1888975*
X1612440Y1888916*
X1612322Y1888798*
X1612263Y1888562*
X1612205Y1888326*
X1614153Y1887381D02*
X1618700D01*
Y1882835*
X1614153*
Y1887381*
X1677932Y1939705D02*
X1687853Y1931613D01*
X1688030Y1931318*
X1688090Y1931082*
X1688208Y1930905*
X1688267Y1930668*
Y1922578*
X1688208Y1922342*
X1688090Y1921987*
X1688030Y1921692*
X1687853Y1921575*
X1648523Y1889625*
Y1883306*
X1687086*
X1687500Y1883188*
X1687853Y1882952*
X1688030Y1882538*
X1688090Y1882066*
X1688030Y1881653*
X1687853Y1881240*
X1687500Y1881003*
X1687086Y1880885*
X1647282*
X1646810Y1881003*
X1646515Y1881298*
X1646220Y1881593*
X1646101Y1882066*
Y1890156*
X1646160Y1890335*
X1646280Y1890747*
X1646397Y1890925*
X1646515Y1891042*
X1646633Y1891160*
X1685905Y1923168*
Y1930078*
X1676692Y1937520*
X1657617*
X1647991Y1929665*
X1647578Y1929546*
X1647165Y1929605*
X1646810Y1929782*
X1646575Y1930137*
X1646338Y1930491*
X1646280Y1930905*
Y1931141*
X1646338Y1931318*
X1646633Y1931613*
X1656555Y1939705*
X1656790Y1939763*
X1656968Y1939822*
X1657027Y1939881*
X1657263Y1939940*
X1677165*
X1677401Y1939881*
X1677460*
X1677520Y1939822*
X1677696Y1939763*
X1677932Y1939705*
X1702440Y1931613D02*
X1712361Y1939705D01*
X1712597Y1939763*
X1712775Y1939822*
X1712835Y1939881*
X1713070Y1939940*
X1732971*
X1733208Y1939881*
X1733267*
X1733326Y1939822*
X1733503Y1939763*
X1733740Y1939705*
X1743660Y1931613*
X1743838Y1931318*
X1743897Y1931082*
X1744015Y1930905*
X1744075Y1930668*
Y1890156*
X1744015Y1889980*
X1743897Y1889566*
X1743838Y1889448*
X1743660Y1889212*
X1733740Y1881121*
X1733503Y1881062*
X1733385Y1881003*
X1733267Y1880945*
X1733150Y1880885*
X1732971*
X1713070*
X1712835Y1880945*
X1712597Y1881003*
X1712361Y1881121*
X1702440Y1889212*
X1702322Y1889330*
X1702205Y1889390*
X1702086Y1889566*
X1701968Y1889980*
X1701908Y1890156*
Y1930668*
X1701968Y1930905*
X1702086Y1931082*
X1702205Y1931318*
X1702440Y1931613*
X1704330Y1930078D02*
Y1890747D01*
X1707815Y1887795*
X1736397Y1934390*
X1732500Y1937520*
X1713425*
X1704330Y1930078*
X1709705Y1886260D02*
X1713425Y1883306D01*
X1732500*
X1741712Y1890747*
Y1930078*
X1738227Y1932853*
X1709705Y1886260*
X1789546Y1939705D02*
X1799468Y1931613D01*
X1799645Y1931318*
X1799705Y1931082*
X1799822Y1930905*
X1799881Y1930668*
Y1922578*
X1799822Y1922342*
X1799705Y1921987*
X1799645Y1921692*
X1799468Y1921575*
X1760137Y1889625*
Y1883306*
X1798700*
X1799113Y1883188*
X1799468Y1882952*
X1799645Y1882538*
X1799705Y1882066*
X1799645Y1881653*
X1799468Y1881240*
X1799113Y1881003*
X1798700Y1880885*
X1758897*
X1758425Y1881003*
X1758130Y1881298*
X1757835Y1881593*
X1757716Y1882066*
Y1890156*
X1757775Y1890335*
X1757893Y1890747*
X1758011Y1890925*
X1758130Y1891042*
X1758247Y1891160*
X1797520Y1923168*
Y1930078*
X1788306Y1937520*
X1769231*
X1759605Y1929665*
X1759192Y1929546*
X1758780Y1929605*
X1758425Y1929782*
X1758188Y1930137*
X1757952Y1930491*
X1757893Y1930905*
Y1931141*
X1757952Y1931318*
X1758247Y1931613*
X1768168Y1939705*
X1768405Y1939763*
X1768582Y1939822*
X1768641Y1939881*
X1768877Y1939940*
X1788780*
X1789015Y1939881*
X1789075*
X1789133Y1939822*
X1789310Y1939763*
X1789546Y1939705*
X1822027Y1883306D02*
X1821555Y1883188D01*
X1821318Y1882952*
X1821141Y1882538*
X1821082Y1882066*
X1821141Y1881653*
X1821318Y1881240*
X1821555Y1880945*
X1822027Y1880885*
X1845058*
X1845471Y1880945*
X1845826Y1881240*
X1846003Y1881653*
X1846062Y1882066*
X1846003Y1882538*
X1845826Y1882952*
X1845471Y1883188*
X1845058Y1883306*
X1834665*
Y1938760*
X1834605Y1939172*
X1834428Y1939468*
X1834133Y1939645*
X1833720Y1939705*
X1833425Y1939763*
X1833130*
X1832893Y1939645*
X1832656Y1939408*
X1821141Y1923227*
X1820965Y1922815*
Y1922401*
X1821141Y1922046*
X1821436Y1921751*
X1821790Y1921515*
X1822205Y1921397*
X1822440*
X1822617Y1921456*
X1822912Y1921810*
X1832361Y1935038*
Y1883306*
X1822027*
G54D12*
X30836Y1428143D02*
X124082Y1334897D01*
X30836Y1927330D02*
X40645Y1937138D01*
X30836Y1927330D02*
Y1428143D01*
X40645Y1937138D02*
X692763D01*
X124082Y1334897D02*
Y1146428D01*
X74870Y1097216*
X566396Y1086716D02*
X520830Y1041150D01*
Y939767*
X692763Y1937138D02*
X1047892D01*
X866141Y1096357D02*
Y1037255D01*
X866417Y1036978*
X1033562Y1257547D02*
Y1169290D01*
X1047892Y1937138D02*
X1159308D01*
X1173227Y1923218*
Y1688975*
X1124273Y1595205D02*
X1127493Y1598425D01*
X1173227*
Y1507873D02*
X1238237D01*
X1247981Y1517617*
X1299212*
X1175293Y1458502D02*
X1174235D01*
X1175293D02*
X1173227Y1460568D01*
Y1507873*
X1184838Y1375983D02*
X1230113Y1330708D01*
X1184838Y1375983D02*
Y1344627D01*
X1198757Y1330708*
X1230113*
X1184838Y1403542D02*
Y1447900D01*
X1175293Y1457445*
Y1458502*
X1184838Y1403542D02*
Y1375983D01*
X1230051Y1222346D02*
X1230113Y1222408D01*
Y1330708*
Y1358267*
X1184838Y1403542*
X1295275Y1690845D02*
X1299212D01*
X1340272Y1649785*
X1515520*
X1295275Y1690845D02*
X1242076D01*
X1240206Y1688975*
X1173227*
X1295275Y1765845D02*
X1240300D01*
X1238212Y1767933*
X1295320Y1818316D02*
X1295275Y1818272D01*
Y1765845*
X1299478Y1465366D02*
X1299212Y1465632D01*
Y1517617*
X1311062Y1330266D02*
X1310620Y1330708D01*
X1230113*
X1515520Y1649785D02*
X1528722Y1636582D01*
X1603445*
Y1277715D02*
X1425658Y1099930D01*
X1603445Y1406215D02*
Y1277715D01*
Y1636582D02*
Y1406215D01*
X1673583Y1551093D02*
X1673416Y1551260D01*
Y1604822*
X1675695Y1854535D02*
X1673416Y1852256D01*
Y1800688*
X1692912Y1408267D02*
X1608807D01*
X1606755Y1406215*
X1603445*
X1826275Y1837031D02*
X1824872Y1835630D01*
X1774795*
X1828300Y1569825D02*
X1828243Y1569881D01*
X1774795*
X1838256Y1657508D02*
X1838227Y1657480D01*
X1774795*
X1840688Y1767750D02*
X1778788D01*
X1774795Y1763755*
G54D13*
X266396Y1186716D02*
X228400D01*
X88900Y1047216*
X60840*
X29595Y1015970*
Y778462*
X66507Y741548*
X1137120*
X1182971Y787401*
X276540Y939767D02*
Y817720D01*
Y939767D02*
Y1032830D01*
X311672Y1067962*
Y1105470*
X266396Y1150745*
Y1186716*
X1033562Y1169290D02*
Y1165353D01*
X1070288Y1128627*
Y1113595*
X1061023Y1104330*
Y1066928*
X1287401Y1092420D02*
X1352775D01*
X1360285Y1099930*
X1425658*
X1299212Y1592617D02*
X1246013D01*
X1240206Y1598425*
X1173227*
X1603445Y1636582D02*
X1618436Y1651575D01*
X1670070*
X1614058Y1744630D02*
Y1741641D01*
X1627353Y1728345*
X1670070*
X1614058Y1744630D02*
X1623365Y1753936D01*
X1670070*
G54D14*
X266396Y1260745D02*
Y1186716D01*
G54D15*
X778735Y1137021D03*
Y1202151D03*
X866417Y1036978D03*
X1174235Y1458502D03*
X1230051Y1222346D03*
X1238212Y1767933D03*
X1295320Y1818316D03*
X1299478Y1465366D03*
X1311062Y1330266D03*
X1614058Y1744630D03*
X1673583Y1551093D03*
X1675695Y1854535D03*
X1826275Y1837031D03*
X1828300Y1569825D03*
X1838256Y1657508D03*
X1840688Y1767750D03*
G54D16*
X74870Y797216D03*
Y897216D03*
Y997216D03*
Y1097216D03*
Y1197216D03*
X266396Y1086716D03*
Y1186716D03*
X366396Y1086716D03*
Y1186716D03*
X466396Y1086716D03*
Y1186716D03*
X566396D03*
X1425590Y440945D03*
X1425658Y1099930D03*
Y1199930D03*
Y1299930D03*
Y1399930D03*
X1692912Y1308267D03*
X1789370Y1112205D03*
G54D17*
X74870Y1297216D03*
X566396Y1086716D03*
X1425590Y340945D03*
X1692912Y1408267D03*
X1789370Y935038D03*
G54D18*
X943113Y1330708D03*
X1230113D03*
G54D19*
X387795Y1405511D03*
G54D20*
X276540Y817720D03*
Y939767D03*
X351540Y817720D03*
Y939767D03*
X445830D03*
X520830D03*
X958562Y885826D03*
Y1169290D03*
X1033562Y885826D03*
Y1169290D03*
X1182971Y787401D03*
X1257971D03*
G54D21*
X1009842Y1066928D03*
X1035432Y980315D03*
X1061023Y1066928D03*
G54D22*
X866141Y1096357D03*
Y1171357D03*
X1287401Y1092420D03*
Y1167420D03*
X1295275Y1690845D03*
Y1765845D03*
X1299212Y1517617D03*
Y1592617D03*
G54D23*
X1690945Y885826D03*
Y1161416D03*
G54D24*
X929133Y1598425D03*
G54D25*
X1173227Y1507873D03*
Y1598425D03*
Y1688975D03*
G54D26*
X1515520Y1649785D03*
Y1700967D03*
Y1752148D03*
X1554951Y1675488D03*
Y1726670D03*
G54D27*
X1546358Y1560137D03*
Y1841633D03*
G54D28*
X1670070Y1651575D03*
Y1677165D03*
Y1702755D03*
Y1728345D03*
Y1753936D03*
G54D29*
X1673416Y1604822D03*
Y1800688D03*
G54D30*
X1774795Y1763755D03*
G54D70*
X250000Y1405511D03*
G54D71*
X1761775Y787401D03*
X1828775D03*
G54D72*
X1774795Y1569881D03*
Y1835630D03*
G54D73*
Y1657480D03*
M02*
