*
G04 Job   : Z:\Rest\ESPto433\V2\PCB\V2.pcb*
G04 User  : DESKTOP-K7BKDL1:life*
G04 Layer : SilkTop.gbr*
G04 Date  : Mon Oct 04 20:14:53 2021*
%ICAS*%
%MOIN*%
%FSLAX26Y26*%
%OFA0.0000B0.0000*%
G90*
G74*
%ADD15C,0.00197*%
%ADD14C,0.00394*%
%ADD16C,0.00598*%
%ADD13C,0.00787*%
%ADD12C,0.00800*%
%ADD11C,0.00984*%
%ADD10C,0.01000*%
G01*
G54D10*
X1104386Y1001006D02*
X1103323D01*
X1103087Y1001045*
X1102890Y1001163*
X1102693Y1001321*
X1102615Y1001557*
X1089820Y1039313*
X1089780Y1039628*
X1089898Y1039865*
X1090135Y1040061*
X1090410Y1040218*
X1090685Y1040258*
X1090961Y1040218*
X1091197Y1040100*
X1091355Y1039825*
X1103835Y1002700*
X1116395Y1039825*
X1116551Y1040100*
X1116787Y1040218*
X1117063Y1040258*
X1117340Y1040218*
X1117615Y1040061*
X1117811Y1039865*
X1117890Y1039628*
X1117850Y1039313*
X1105135Y1001557*
X1105016Y1001321*
X1104780Y1001163*
X1104622Y1001045*
X1104386Y1001006*
X1139150Y1001793D02*
X1139190Y1001518D01*
X1139386Y1001281*
X1139661Y1001163*
X1139937Y1001125*
X1140213Y1001163*
X1140450Y1001281*
X1140646Y1001518*
X1140725Y1001793*
Y1038762*
X1153205*
X1153480Y1038841*
X1153717Y1038998*
X1153835Y1039275*
X1153875Y1039550*
X1153835Y1039865*
X1153717Y1040140*
X1153480Y1040337*
X1153205Y1040376*
X1126630*
X1126355Y1040337*
X1126157Y1040140*
X1126000Y1039865*
X1125961Y1039550*
X1126000Y1039275*
X1126157Y1038998*
X1126355Y1038841*
X1126630Y1038762*
X1139150*
Y1001793*
X1168756Y1002620D02*
X1168441Y1002541D01*
X1168283Y1002385*
X1168165Y1002108*
X1168126Y1001793*
X1168165Y1001518*
X1168283Y1001242*
X1168441Y1001045*
X1168756Y1001006*
X1184110*
X1184386Y1001045*
X1184622Y1001242*
X1184740Y1001518*
X1184780Y1001793*
X1184740Y1002108*
X1184622Y1002385*
X1184386Y1002541*
X1184110Y1002620*
X1177181*
Y1039590*
X1177142Y1039865*
X1177025Y1040061*
X1176827Y1040180*
X1176551Y1040218*
X1176355Y1040258*
X1176157*
X1176000Y1040180*
X1175843Y1040022*
X1168165Y1029235*
X1168047Y1028960*
Y1028683*
X1168165Y1028447*
X1168362Y1028250*
X1168598Y1028093*
X1168875Y1028015*
X1169031*
X1169150Y1028053*
X1169346Y1028290*
X1175646Y1037108*
Y1002620*
X1168756*
G54D11*
X69802Y1427637D02*
X57165Y1445550D01*
X44527Y1427637*
X44448Y1427480*
X44290Y1427401*
X44172Y1427361*
X44055*
X43780Y1427440*
X43542Y1427558*
X43345Y1427755*
X43188Y1427991*
X43150Y1428306*
X43267Y1428582*
X56141Y1446968*
X43267Y1465353*
X43150Y1465630*
Y1465905*
X43306Y1466180*
X43503Y1466377*
X43780Y1466495*
X44055Y1466575*
X44290Y1466535*
X44527Y1466338*
X57165Y1448385*
X69802Y1466338*
X70000Y1466535*
X70275Y1466575*
X70550Y1466495*
X70786Y1466377*
X71023Y1466180*
X71141Y1465905*
X71180Y1465630*
X71101Y1465353*
X58110Y1446968*
X71101Y1428582*
X71180Y1428267*
X71141Y1427991*
X71023Y1427716*
X70786Y1427520*
X70550Y1427361*
X70275Y1427322*
X70000Y1427401*
X69802Y1427637*
X87282Y1427440D02*
X80630Y1432835D01*
X80432Y1433030*
X80393Y1433267*
X80432Y1433542*
X80590Y1433818*
X80786Y1434015*
X81023Y1434172*
X81298Y1434212*
X81575Y1434133*
X87991Y1428897*
X100708*
X106850Y1433857*
Y1441180*
X100786Y1446180*
X94251*
X93936Y1446260*
X93740Y1446416*
X93621Y1446692*
X93582Y1446968*
X93621Y1447243*
X93740Y1447480*
X93936Y1447676*
X94251Y1447755*
X100786*
X106850Y1452755*
Y1460078*
X100708Y1465038*
X87991*
X81575Y1459802*
X81298Y1459723*
X81023Y1459763*
X80786Y1459881*
X80590Y1460117*
X80432Y1460353*
X80393Y1460630*
X80432Y1460905*
X80630Y1461101*
X87282Y1466495*
X87401Y1466535*
X87520Y1466575*
X87558Y1466613*
X87716Y1466653*
X100983*
X101180Y1466613*
X101260Y1466575*
X101377Y1466535*
X101495Y1466495*
X108150Y1461101*
X108267Y1460905*
X108306Y1460747*
X108385Y1460630*
X108425Y1460471*
Y1452361*
X108385Y1452243*
X108306Y1451968*
X108267Y1451771*
X108150Y1451692*
X102361Y1446968*
X108150Y1442243*
X108188Y1442165*
X108267Y1442086*
X108306Y1442046*
Y1441968*
X108385Y1441692*
X108425Y1441575*
Y1433465*
X108385Y1433267*
X108306Y1433110*
X108267Y1432952*
X108150Y1432835*
X101495Y1427440*
X101338Y1427361*
X101298Y1427322*
X101180*
X101141Y1427282*
X101101*
X100983*
X87716*
X87558Y1427322*
X87401Y1427361*
X87282Y1427440*
G54D12*
X243040Y780720D02*
X385040D01*
Y854720*
X243040*
Y780720*
Y902767D02*
X385040D01*
Y976767*
X243040*
Y902767*
X412330D02*
X554330D01*
Y976767*
X412330*
Y902767*
X814763Y1330708D02*
X874763D01*
X829141Y1062857D02*
X903141D01*
Y1204857*
X829141*
Y1062857*
X925062Y848826D02*
X1067062D01*
Y922826*
X925062*
Y848826*
Y1132290D02*
X1067062D01*
Y1206290*
X925062*
Y1132290*
X941613Y1240708D02*
Y1235708D01*
X1231613*
Y1240708*
X941613Y1420708D02*
Y1425708D01*
X1231613*
Y1420708*
X1149471Y750401D02*
X1291471D01*
Y824401*
X1149471*
Y750401*
X1250401Y1058920D02*
X1324401D01*
Y1200920*
X1250401*
Y1058920*
X1258275Y1657345D02*
X1332275D01*
Y1799345*
X1258275*
Y1657345*
X1262212Y1484117D02*
X1336212D01*
Y1626117*
X1262212*
Y1484117*
X1628666Y769218D02*
X1627603D01*
X1627367Y769257*
X1627170Y769375*
X1626973Y769532*
X1626895Y769770*
X1614100Y807525*
X1614060Y807840*
X1614178Y808076*
X1614415Y808273*
X1614690Y808430*
X1614966Y808470*
X1615241Y808430*
X1615477Y808312*
X1615635Y808036*
X1628115Y770910*
X1640675Y808036*
X1640832Y808312*
X1641068Y808430*
X1641343Y808470*
X1641620Y808430*
X1641895Y808273*
X1642092Y808076*
X1642170Y807840*
X1642131Y807525*
X1629415Y769770*
X1629296Y769532*
X1629060Y769375*
X1628903Y769257*
X1628666Y769218*
X1651777Y806973D02*
X1670556D01*
X1676698Y802013*
Y775792*
X1670556Y770832*
X1651777*
Y806973*
X1671343Y808430D02*
X1671147Y808510D01*
X1670990Y808548*
X1670832Y808588*
X1650910*
X1650635Y808510*
X1650400Y808312*
X1650202Y808076*
X1650123Y807800*
Y770005*
X1650202Y769690*
X1650400Y769493*
X1650635Y769257*
X1650910Y769218*
X1670832*
X1670990*
X1671068Y769257*
X1671147Y769296*
X1671343Y769375*
X1677997Y774770*
X1678115Y774926*
X1678155Y775005*
X1678233Y775202*
X1678273Y775400*
Y802406*
X1678233Y802603*
X1678155Y802721*
Y802840*
X1678115Y802880*
X1678036Y802918*
X1677997Y802997*
X1671343Y808430*
X1693036Y770832D02*
X1692721Y770753D01*
X1692565Y770595*
X1692446Y770320*
X1692406Y770005*
X1692446Y769730*
X1692565Y769455*
X1692721Y769257*
X1693036Y769218*
X1708391*
X1708666Y769257*
X1708903Y769455*
X1709021Y769730*
X1709060Y770005*
X1709021Y770320*
X1708903Y770595*
X1708666Y770753*
X1708391Y770832*
X1701462*
Y807800*
X1701422Y808076*
X1701305Y808273*
X1701107Y808391*
X1700832Y808430*
X1700635Y808470*
X1700438*
X1700280Y808391*
X1700123Y808233*
X1692446Y797446*
X1692328Y797170*
Y796895*
X1692446Y796658*
X1692643Y796462*
X1692880Y796305*
X1693155Y796225*
X1693312*
X1693430Y796265*
X1693627Y796501*
X1699926Y805320*
Y770832*
X1693036*
X1717013Y1585755D02*
X1736193D01*
X1732275Y760401D02*
X1858275D01*
Y814401*
X1732275*
Y760401*
X1736193Y1819755D02*
X1717013D01*
X1813393Y1585755D02*
X1889653D01*
Y1819755*
X1813393*
G54D13*
X22480Y732188D02*
X127205D01*
Y1362110*
X22480*
Y732188*
X58740Y1664448D02*
X64172Y1671101D01*
X64448Y1671338*
X64645Y1671416*
X64842Y1671495*
X65156Y1671535*
X70432*
X70630Y1671495*
X70905Y1671416*
X71180Y1671377*
X71338Y1671298*
X71495Y1671141*
X71613Y1670945*
X92205Y1645590*
X95550*
Y1670156*
X95590Y1670471*
X95668Y1670708*
X95826Y1670945*
X96023Y1671101*
X96456Y1671338*
X96928Y1671416*
X97361Y1671338*
X97835Y1671101*
X98030Y1670945*
X98150Y1670747*
X98227Y1670471*
X98267Y1670156*
Y1644172*
X98227Y1643857*
X98150Y1643621*
X98030Y1643425*
X97835Y1643267*
X97676Y1643070*
X97480Y1642952*
X97243Y1642873*
X96928Y1642835*
X91653*
X91535*
X91416Y1642873*
X91220Y1642912*
X90983Y1642991*
X90865Y1643110*
X90786Y1643150*
X90590Y1643306*
X69842Y1668857*
X65826*
X61260Y1663188*
Y1651180*
X66298Y1645038*
X66377Y1644763*
X66456Y1644448*
Y1644212*
X66416Y1643936*
X66180Y1643503*
X65865Y1643188*
X65471Y1642991*
X64960Y1642912*
X64723*
X64487Y1642991*
X64330Y1643150*
X64133Y1643345*
X58740Y1649960*
X59172*
X59487*
X59685*
X59723Y1649920*
X59212Y1650078*
X58857Y1650275*
X58621Y1650432*
X58542Y1650630*
Y1663660*
X58582Y1664015*
X58700Y1664172*
Y1664251*
X58740Y1664448*
Y1738936D02*
X64172Y1745590D01*
X64448Y1745826*
X64645Y1745905*
X64842Y1745983*
X65156Y1746023*
X70432*
X70630Y1745983*
X70905Y1745905*
X71180Y1745865*
X71338Y1745786*
X71495Y1745630*
X71613Y1745432*
X92205Y1720078*
X95550*
Y1744645*
X95590Y1744960*
X95668Y1745196*
X95826Y1745432*
X96023Y1745590*
X96456Y1745826*
X96928Y1745905*
X97361Y1745826*
X97835Y1745590*
X98030Y1745432*
X98150Y1745235*
X98227Y1744960*
X98267Y1744645*
Y1718660*
X98227Y1718345*
X98150Y1718110*
X98030Y1717912*
X97835Y1717755*
X97676Y1717558*
X97480Y1717440*
X97243Y1717361*
X96928Y1717322*
X91653*
X91535*
X91416Y1717361*
X91220Y1717401*
X90983Y1717480*
X90865Y1717597*
X90786Y1717637*
X90590Y1717795*
X69842Y1743345*
X65826*
X61260Y1737676*
Y1725668*
X66298Y1719527*
X66377Y1719251*
X66456Y1718936*
Y1718700*
X66416Y1718425*
X66180Y1717991*
X65865Y1717676*
X65471Y1717480*
X64960Y1717401*
X64723*
X64487Y1717480*
X64330Y1717637*
X64133Y1717835*
X58740Y1724448*
X59172*
X59487*
X59685*
X59723Y1724408*
X59212Y1724566*
X58857Y1724763*
X58621Y1724920*
X58542Y1725117*
Y1738150*
X58582Y1738503*
X58700Y1738660*
Y1738740*
X58740Y1738936*
X61260Y1757282D02*
Y1774960D01*
X65826Y1780630*
X72480*
X77086Y1775000*
Y1757282*
X61260*
X74251Y1782755D02*
X74172Y1782952D01*
X74015Y1783110*
X73857Y1783188*
X73621Y1783227*
X73385Y1783306*
X73110Y1783345*
X65196*
X64842Y1783306*
X64723Y1783267*
X64645Y1783227*
X64448Y1783188*
X64330Y1783070*
X64290Y1782991*
X64251Y1782952*
X58818Y1776220*
X58740Y1776023*
X58660Y1775905*
X58621Y1775826*
X58582Y1775668*
X58542Y1775393*
Y1755945*
X58582Y1755590*
X58660Y1755353*
X58818Y1755117*
X58975Y1754960*
X59133Y1754802*
X59330Y1754645*
X59605Y1754566*
X59881*
X96928*
X97243*
X97520Y1754645*
X97716Y1754802*
X97873Y1755000*
X98110Y1755432*
X98150Y1755865*
X98070Y1756377*
X97873Y1756850*
X97716Y1757046*
X97480Y1757165*
X97243Y1757282*
X96928*
X79723*
Y1774448*
X97361Y1780668*
X97637Y1780786*
X97835Y1780945*
X97991Y1781180*
X98070Y1781416*
X98150Y1781928*
X98030Y1782361*
X97835Y1782755*
X97480Y1783070*
X97282Y1783150*
X97007Y1783227*
X96692Y1783188*
X96338Y1783110*
X78857Y1776890*
X74251Y1782755*
X80000Y1612912D02*
Y1625315D01*
X80038Y1625630*
X80117Y1625865*
X80235Y1626101*
X80393Y1626260*
X80786Y1626456*
X81180Y1626535*
X81456Y1626495*
X81731Y1626456*
X81928Y1626338*
X82125Y1626220*
X82282Y1626062*
X82361Y1625865*
X82440Y1625590*
Y1625315*
Y1612912*
Y1612637*
X82361Y1612401*
X82282Y1612205*
X82125Y1612046*
X81928Y1611928*
X81731Y1611850*
X81456Y1611771*
X81180*
X80786Y1611810*
X80393Y1612046*
X80235Y1612205*
X80117Y1612401*
X80038Y1612637*
X80000Y1612912*
Y1797637D02*
Y1810038D01*
X80038Y1810353*
X80117Y1810590*
X80235Y1810826*
X80393Y1810983*
X80786Y1811180*
X81180Y1811260*
X81456Y1811220*
X81731Y1811180*
X81928Y1811062*
X82125Y1810945*
X82282Y1810786*
X82361Y1810590*
X82440Y1810315*
Y1810038*
Y1797637*
Y1797361*
X82361Y1797125*
X82282Y1796928*
X82125Y1796771*
X81928Y1796653*
X81731Y1796575*
X81456Y1796495*
X81180*
X80786Y1796535*
X80393Y1796771*
X80235Y1796928*
X80117Y1797125*
X80038Y1797361*
X80000Y1797637*
X96928Y1508345D02*
X97243Y1508385D01*
X97480Y1508465*
X97676Y1508582*
X97873Y1508780*
X98070Y1509212*
X98150Y1509685*
X98070Y1510156*
X97835Y1510590*
X97676Y1510786*
X97480Y1510945*
X97205Y1511023*
X96928Y1511062*
X61260*
Y1522716*
X61220Y1522991*
X61141Y1523267*
X60983Y1523465*
X60786Y1523660*
X60353Y1523857*
X59920Y1523936*
X59448Y1523857*
X58975Y1523660*
X58780Y1523465*
X58660Y1523267*
X58582Y1522991*
X58542Y1522716*
Y1496653*
X58582Y1496377*
X58660Y1496101*
X58780Y1495905*
X58975Y1495747*
X59448Y1495511*
X59920Y1495432*
X60393Y1495511*
X60826Y1495747*
X60983Y1495905*
X61141Y1496101*
X61220Y1496377*
X61260Y1496653*
Y1508345*
X96928*
Y1545590D02*
X97243Y1545630D01*
X97480Y1545708*
X97676Y1545826*
X97873Y1546023*
X98070Y1546456*
X98150Y1546928*
X98070Y1547401*
X97835Y1547835*
X97676Y1548030*
X97480Y1548188*
X97205Y1548267*
X96928Y1548306*
X61260*
Y1559960*
X61220Y1560235*
X61141Y1560511*
X60983Y1560708*
X60786Y1560905*
X60353Y1561101*
X59920Y1561180*
X59448Y1561101*
X58975Y1560905*
X58780Y1560708*
X58660Y1560511*
X58582Y1560235*
X58542Y1559960*
Y1533897*
X58582Y1533621*
X58660Y1533345*
X58780Y1533150*
X58975Y1532991*
X59448Y1532755*
X59920Y1532676*
X60393Y1532755*
X60826Y1532991*
X60983Y1533150*
X61141Y1533345*
X61220Y1533621*
X61260Y1533897*
Y1545590*
X96928*
Y1569842D02*
X97243D01*
X97480Y1569920*
X97716Y1570078*
X97835Y1570235*
X98030Y1570393*
X98150Y1570590*
X98227Y1570865*
X98267Y1571141*
Y1597205*
X98227Y1597480*
X98150Y1597755*
X98030Y1597952*
X97835Y1598150*
X97401Y1598345*
X96928Y1598425*
X96495Y1598345*
X96023Y1598150*
X95826Y1597952*
X95668Y1597755*
X95590Y1597480*
X95550Y1597205*
Y1572558*
X59881*
X59605*
X59370Y1572440*
X59133Y1572322*
X58975Y1572125*
X58740Y1571653*
X58660Y1571141*
X58740Y1570708*
X58975Y1570275*
X59133Y1570078*
X59330Y1569920*
X59605Y1569842*
X59881*
X96928*
X97991Y1687086D02*
X92676Y1680590D01*
X92520Y1680393*
X92322Y1680235*
X92086Y1680156*
X91850*
X91377Y1680235*
X90945Y1680432*
X90630Y1680747*
X90432Y1681180*
X90353Y1681416*
X90393Y1681692*
X90432Y1681968*
X90550Y1682243*
X95550Y1688385*
Y1700432*
X90983Y1706101*
X84330*
X79723Y1700471*
Y1694290*
X79685Y1694015*
X79605Y1693740*
X79487Y1693542*
X79290Y1693385*
X78857Y1693150*
X78425Y1693070*
X77952Y1693150*
X77520Y1693385*
X77322Y1693542*
X77205Y1693740*
X77125Y1694015*
X77086Y1694290*
Y1700511*
X72480Y1706101*
X65826*
X61260Y1700432*
Y1688385*
X66260Y1682243*
X66377Y1681968*
X66456Y1681692*
Y1681416*
X66377Y1681180*
X66180Y1680747*
X65865Y1680432*
X65471Y1680235*
X64960Y1680156*
X64723*
X64487Y1680235*
X64330Y1680393*
X64133Y1680590*
X58740Y1687205*
X59172*
X59487*
X59685*
X59723Y1687165*
X59212Y1687361*
X58857Y1687520*
X58621Y1687716*
X58542Y1687912*
Y1700905*
X58582Y1701260*
X58700Y1701456*
Y1701495*
X58740Y1701692*
X64172Y1708345*
X64330Y1708465*
X64448Y1708582*
X64566Y1708660*
X64685*
X64842Y1708740*
X65156Y1708780*
X73110*
X73306Y1708740*
X73582Y1708660*
X73818Y1708621*
X74015Y1708542*
X74172Y1708385*
X74251Y1708188*
X78425Y1702795*
X82716Y1708385*
X82755Y1708425*
X82835Y1708542*
X82952Y1708621*
X83227Y1708660*
X83542Y1708740*
X83700Y1708780*
X91653*
X91850*
X92007Y1708740*
X92125Y1708700*
X92205Y1708660*
X92401Y1708621*
X92520Y1708542*
X92637Y1708385*
X92755Y1708188*
X98030Y1701731*
X98188Y1701456*
X98227Y1701377*
Y1701338*
X98267Y1701260*
Y1701141*
Y1700905*
Y1687912*
Y1687637*
X98227Y1687520*
X98150Y1687322*
X97991Y1687086*
Y1834566D02*
X92676Y1828070D01*
X92520Y1827873*
X92322Y1827716*
X92086Y1827637*
X91850*
X91377Y1827716*
X90945Y1827912*
X90630Y1828227*
X90432Y1828660*
X90353Y1828897*
X90393Y1829172*
X90432Y1829448*
X90550Y1829723*
X95550Y1835865*
Y1847912*
X90983Y1853582*
X84330*
X79723Y1847952*
Y1841771*
X79685Y1841495*
X79605Y1841220*
X79487Y1841023*
X79290Y1840865*
X78857Y1840630*
X78425Y1840550*
X77952Y1840630*
X77520Y1840865*
X77322Y1841023*
X77205Y1841220*
X77125Y1841495*
X77086Y1841771*
Y1847991*
X72480Y1853582*
X65826*
X61260Y1847912*
Y1835865*
X66260Y1829723*
X66377Y1829448*
X66456Y1829172*
Y1828897*
X66377Y1828660*
X66180Y1828227*
X65865Y1827912*
X65471Y1827716*
X64960Y1827637*
X64723*
X64487Y1827716*
X64330Y1827873*
X64133Y1828070*
X58740Y1834685*
X59172*
X59487*
X59685*
X59723Y1834645*
X59212Y1834842*
X58857Y1835000*
X58621Y1835196*
X58542Y1835393*
Y1848385*
X58582Y1848740*
X58700Y1848936*
Y1848975*
X58740Y1849172*
X64172Y1855826*
X64330Y1855945*
X64448Y1856062*
X64566Y1856141*
X64685*
X64842Y1856220*
X65156Y1856260*
X73110*
X73306Y1856220*
X73582Y1856141*
X73818Y1856101*
X74015Y1856023*
X74172Y1855865*
X74251Y1855668*
X78425Y1850275*
X82716Y1855865*
X82755Y1855905*
X82835Y1856023*
X82952Y1856101*
X83227Y1856141*
X83542Y1856220*
X83700Y1856260*
X91653*
X91850*
X92007Y1856220*
X92125Y1856180*
X92205Y1856141*
X92401Y1856101*
X92520Y1856023*
X92637Y1855865*
X92755Y1855668*
X98030Y1849212*
X98188Y1848936*
X98227Y1848857*
Y1848818*
X98267Y1848740*
Y1848621*
Y1848385*
Y1835393*
Y1835117*
X98227Y1835000*
X98150Y1834802*
X97991Y1834566*
Y1909055D02*
X92676Y1902558D01*
X92520Y1902361*
X92322Y1902205*
X92086Y1902125*
X91850*
X91377Y1902205*
X90945Y1902401*
X90630Y1902716*
X90432Y1903150*
X90353Y1903385*
X90393Y1903660*
X90432Y1903936*
X90550Y1904212*
X95550Y1910353*
Y1922401*
X90983Y1928070*
X84330*
X79723Y1922440*
Y1916260*
X79685Y1915983*
X79605Y1915708*
X79487Y1915511*
X79290Y1915353*
X78857Y1915117*
X78425Y1915038*
X77952Y1915117*
X77520Y1915353*
X77322Y1915511*
X77205Y1915708*
X77125Y1915983*
X77086Y1916260*
Y1922480*
X72480Y1928070*
X65826*
X61260Y1922401*
Y1910353*
X66260Y1904212*
X66377Y1903936*
X66456Y1903660*
Y1903385*
X66377Y1903150*
X66180Y1902716*
X65865Y1902401*
X65471Y1902205*
X64960Y1902125*
X64723*
X64487Y1902205*
X64330Y1902361*
X64133Y1902558*
X58740Y1909172*
X59172*
X59487*
X59685*
X59723Y1909133*
X59212Y1909330*
X58857Y1909487*
X58621Y1909685*
X58542Y1909881*
Y1922873*
X58582Y1923227*
X58700Y1923425*
Y1923465*
X58740Y1923660*
X64172Y1930315*
X64330Y1930432*
X64448Y1930550*
X64566Y1930630*
X64685*
X64842Y1930708*
X65156Y1930747*
X73110*
X73306Y1930708*
X73582Y1930630*
X73818Y1930590*
X74015Y1930511*
X74172Y1930353*
X74251Y1930156*
X78425Y1924763*
X82716Y1930353*
X82755Y1930393*
X82835Y1930511*
X82952Y1930590*
X83227Y1930630*
X83542Y1930708*
X83700Y1930747*
X91653*
X91850*
X92007Y1930708*
X92125Y1930668*
X92205Y1930630*
X92401Y1930590*
X92520Y1930511*
X92637Y1930353*
X92755Y1930156*
X98030Y1923700*
X98188Y1923425*
X98227Y1923345*
Y1923306*
X98267Y1923227*
Y1923110*
Y1922873*
Y1909881*
Y1909605*
X98227Y1909487*
X98150Y1909290*
X97991Y1909055*
X98267Y1880786D02*
Y1879723D01*
X98227Y1879290*
X98030Y1878975*
X97912Y1878740*
X97755Y1878582*
X97520Y1878503*
X97282Y1878465*
X60353Y1865983*
X60038Y1865945*
X59763*
X59527Y1866023*
X59330Y1866141*
X58975Y1866456*
X58780Y1866850*
X58700Y1867322*
X58780Y1867835*
X58857Y1868070*
X59015Y1868267*
X59212Y1868425*
X59487Y1868542*
X95511Y1880235*
X59487Y1892007*
X59212Y1892125*
X59015Y1892282*
X58857Y1892480*
X58740Y1892716*
X58700Y1893188*
X58780Y1893660*
X59015Y1894093*
X59330Y1894408*
X59566Y1894487*
X59802Y1894566*
X60038*
X60353Y1894527*
X97322Y1882046*
X97558Y1882007*
X97755Y1881890*
X97912Y1881731*
X98030Y1881495*
X98227Y1881180*
X98267Y1880786*
X105157Y1400298D02*
X75630Y1331400D01*
X46102Y1400298*
X105157*
X137360Y273335D02*
X704290D01*
Y537115*
X137360*
Y273335*
Y537115D02*
X704290D01*
Y1245776*
X137360*
Y537115*
X157480Y1468503D02*
X480315D01*
Y1921260*
X157480*
Y1468503*
X163690Y959340D02*
X182510D01*
X188651Y954380*
Y947057*
X182510Y942057*
X163690*
Y959340*
X165235Y832950D02*
X184053D01*
X190195Y827990*
Y820667*
X184053Y815667*
X165235*
Y832950*
X189950Y945995D02*
X190068Y946073D01*
X190108Y946270*
X190226Y946466*
Y946663*
Y954773*
Y954970*
X190108Y955088*
Y955206*
X190068Y955246*
X190030Y955285*
X189950Y955365*
X183257Y960797*
X183060Y960876*
X182903Y960915*
X182746Y960955*
X162903*
X162550Y960876*
X162312Y960680*
X162116Y960443*
X162037Y960167*
Y922372*
X162116Y922057*
X162312Y921860*
X162550Y921742*
X162825Y921702*
X163140Y921742*
X163415Y921860*
X163612Y922057*
X163690Y922372*
Y940482*
X182195*
X188651Y922136*
X188810Y921860*
X189085Y921702*
X189400Y921663*
X189635Y921742*
X189872Y921860*
X190068Y922057*
X190186Y922332*
X190108Y922647*
X183651Y940995*
X189950Y945995*
X191495Y819605D02*
X191612Y819683D01*
X191651Y819880*
X191770Y820076*
Y820273*
Y828385*
Y828580*
X191651Y828700*
Y828817*
X191612Y828856*
X191572Y828895*
X191495Y828975*
X184801Y834407*
X184605Y834486*
X184446Y834525*
X184290Y834565*
X164446*
X164092Y834486*
X163856Y834290*
X163660Y834053*
X163580Y833777*
Y795982*
X163660Y795667*
X163856Y795470*
X164092Y795352*
X164368Y795313*
X164683Y795352*
X164958Y795470*
X165155Y795667*
X165235Y795982*
Y814092*
X183738*
X190195Y795746*
X190352Y795470*
X190627Y795313*
X190942Y795273*
X191180Y795352*
X191415Y795470*
X191612Y795667*
X191730Y795943*
X191651Y796258*
X185195Y814605*
X191495Y819605*
X206495Y796810D02*
X206180Y796730D01*
X206021Y796573*
X205903Y796297*
X205865Y795982*
X205903Y795706*
X206021Y795431*
X206180Y795235*
X206495Y795195*
X221848*
X222123Y795235*
X222360Y795431*
X222478Y795706*
X222517Y795982*
X222478Y796297*
X222360Y796573*
X222123Y796730*
X221848Y796810*
X214920*
Y833777*
X214880Y834053*
X214761Y834250*
X214565Y834368*
X214290Y834407*
X214092Y834447*
X213895*
X213738Y834368*
X213580Y834210*
X205903Y823423*
X205785Y823147*
Y822872*
X205903Y822636*
X206100Y822440*
X206336Y822281*
X206612Y822202*
X206770*
X206887Y822242*
X207085Y822478*
X213383Y831297*
Y796810*
X206495*
X220501Y960797D02*
X227116Y955403D01*
X227235Y955206*
X227273Y955050*
X227352Y954931*
X227391Y954773*
Y949380*
X227352Y949222*
X227273Y948986*
X227235Y948790*
X227116Y948710*
X200895Y927411*
Y923200*
X226605*
X226880Y923120*
X227116Y922962*
X227235Y922687*
X227273Y922372*
X227235Y922096*
X227116Y921821*
X226880Y921663*
X226605Y921585*
X200068*
X199753Y921663*
X199557Y921860*
X199360Y922057*
X199281Y922372*
Y927765*
X199320Y927885*
X199400Y928160*
X199478Y928277*
X199557Y928356*
X199635Y928435*
X225816Y949773*
Y954380*
X219675Y959340*
X206958*
X200541Y954105*
X200265Y954025*
X199990Y954065*
X199753Y954183*
X199596Y954420*
X199438Y954655*
X199400Y954931*
Y955088*
X199438Y955206*
X199635Y955403*
X206250Y960797*
X206407Y960836*
X206525Y960876*
X206565Y960915*
X206722Y960955*
X219990*
X220147Y960915*
X220186*
X220226Y960876*
X220345Y960836*
X220501Y960797*
X248030Y1468503D02*
Y1437007D01*
X283936Y1326653D02*
X277322Y1332046D01*
X277125Y1332165*
X277086Y1332322*
X277007Y1332480*
X276968Y1332676*
Y1359685*
X277007Y1359881*
X277086Y1360038*
X277165Y1360117*
X277205Y1360196*
X277282Y1360315*
X283936Y1365708*
X284055Y1365747*
X284172Y1365786*
X284212Y1365826*
X284370Y1365865*
X297637*
X297835Y1365826*
X297912Y1365786*
X298030Y1365747*
X298150Y1365708*
X304802Y1360315*
X304960Y1360117*
X305038Y1359802*
X305000Y1359566*
X304920Y1359370*
X304802Y1359212*
X304605Y1359055*
X304408Y1358936*
X304212Y1358897*
X304015*
X303857Y1359015*
X297361Y1364251*
X284645*
X278582Y1359290*
Y1333070*
X284645Y1328110*
X297361*
X303857Y1333345*
X304015Y1333425*
X304212Y1333465*
X304408Y1333425*
X304605Y1333306*
X304802Y1333150*
X304920Y1332952*
X305000Y1332716*
X305038Y1332480*
X304960Y1332243*
X304802Y1332046*
X298150Y1326653*
X297991Y1326575*
X297952Y1326535*
X297835*
X297795Y1326495*
X297755*
X297637*
X284370*
X284212Y1326535*
X284055Y1326575*
X283936Y1326653*
X321495Y1352322D02*
X321338Y1352282D01*
X321220Y1352243*
X321062Y1352165*
X315708Y1347835*
Y1364251*
X341416*
X341692Y1364330*
X341928Y1364487*
X342046Y1364763*
X342086Y1365038*
X342046Y1365353*
X341928Y1365590*
X341692Y1365786*
X341416Y1365865*
X314842*
X314566Y1365786*
X314330Y1365590*
X314133Y1365353*
X314055Y1365078*
Y1346141*
X314093Y1345865*
X314212Y1345668*
X314370Y1345550*
X314645Y1345471*
X314842Y1345393*
X315000Y1345353*
X315196Y1345393*
X315353Y1345511*
X321771Y1350747*
X334487*
X340630Y1345747*
Y1333070*
X334487Y1328150*
X321771*
X315353Y1333345*
X315078Y1333465*
X314842*
X314605Y1333306*
X314370Y1333110*
X314212Y1332835*
X314172Y1332558*
X314212Y1332282*
X314408Y1332086*
X321062Y1326653*
X321180Y1326575*
X321338*
X321495Y1326495*
X334763*
X334881*
X334920Y1326535*
X334960*
X335038Y1326575*
X335117*
X335275Y1326653*
X341928Y1332086*
X342046Y1332205*
X342086Y1332282*
X342165Y1332520*
X342205Y1332676*
Y1346141*
X342165Y1346298*
X342086Y1346535*
Y1346613*
X342046Y1346653*
X341968Y1346731*
X341928Y1346810*
X335275Y1352165*
X335078Y1352243*
X334920Y1352282*
X334763Y1352322*
X321495*
X385826Y1468503D02*
Y1437007D01*
X417322Y1277558D02*
Y1356298D01*
X456692Y1316928D02*
X377952D01*
X590317Y923436D02*
X583703Y928830D01*
X583506Y928948*
X583467Y929105*
X583388Y929263*
X583350Y929460*
Y956468*
X583388Y956665*
X583467Y956822*
X583546Y956901*
X583585Y956980*
X583665Y957098*
X590317Y962491*
X590435Y962531*
X590553Y962570*
X590593Y962610*
X590750Y962650*
X604018*
X604215Y962610*
X604295Y962570*
X604412Y962531*
X604530Y962491*
X611183Y957098*
X611341Y956901*
X611420Y956586*
X611380Y956350*
X611302Y956153*
X611183Y955995*
X610987Y955838*
X610790Y955720*
X610593Y955680*
X610396*
X610240Y955798*
X603742Y961035*
X591026*
X584963Y956075*
Y929853*
X591026Y924893*
X603742*
X610240Y930130*
X610396Y930208*
X610593Y930247*
X610790Y930208*
X610987Y930090*
X611183Y929932*
X611302Y929735*
X611380Y929500*
X611420Y929263*
X611341Y929027*
X611183Y928830*
X604530Y923436*
X604372Y923357*
X604333Y923318*
X604215*
X604176Y923280*
X604136*
X604018*
X590750*
X590593Y923318*
X590435Y923357*
X590317Y923436*
X627443D02*
X620790Y928830D01*
X620593Y929027*
X620553Y929263*
X620593Y929540*
X620750Y929815*
X620947Y930011*
X621183Y930168*
X621460Y930208*
X621735Y930130*
X628152Y924893*
X640868*
X647010Y929853*
Y937176*
X640947Y942176*
X634412*
X634097Y942255*
X633900Y942413*
X633782Y942688*
X633742Y942965*
X633782Y943240*
X633900Y943476*
X634097Y943672*
X634412Y943751*
X640947*
X647010Y948751*
Y956075*
X640868Y961035*
X628152*
X621735Y955798*
X621460Y955720*
X621183Y955760*
X620947Y955877*
X620750Y956113*
X620593Y956350*
X620553Y956625*
X620593Y956901*
X620790Y957098*
X627443Y962491*
X627561Y962531*
X627680Y962570*
X627720Y962610*
X627876Y962650*
X641145*
X641341Y962610*
X641420Y962570*
X641538Y962531*
X641656Y962491*
X648310Y957098*
X648428Y956901*
X648467Y956743*
X648546Y956625*
X648585Y956468*
Y948357*
X648546Y948240*
X648467Y947965*
X648428Y947767*
X648310Y947688*
X642522Y942965*
X648310Y938240*
X648350Y938161*
X648428Y938082*
X648467Y938042*
Y937965*
X648546Y937688*
X648585Y937570*
Y929460*
X648546Y929263*
X648467Y929105*
X648428Y928948*
X648310Y928830*
X641656Y923436*
X641498Y923357*
X641460Y923318*
X641341*
X641302Y923280*
X641262*
X641145*
X627876*
X627720Y923318*
X627561Y923357*
X627443Y923436*
X807795Y1393582D02*
X801180Y1398975D01*
X800983Y1399093*
X800945Y1399251*
X800865Y1399408*
X800826Y1399605*
Y1426613*
X800865Y1426810*
X800945Y1426968*
X801023Y1427046*
X801062Y1427125*
X801141Y1427243*
X807795Y1432637*
X807912Y1432676*
X808030Y1432716*
X808070Y1432755*
X808227Y1432795*
X821495*
X821692Y1432755*
X821771Y1432716*
X821890Y1432676*
X822007Y1432637*
X828660Y1427243*
X828818Y1427046*
X828897Y1426731*
X828857Y1426495*
X828780Y1426298*
X828660Y1426141*
X828465Y1425983*
X828267Y1425865*
X828070Y1425826*
X827873*
X827716Y1425945*
X821220Y1431180*
X808503*
X802440Y1426220*
Y1400000*
X808503Y1395038*
X821220*
X827716Y1400275*
X827873Y1400353*
X828070Y1400393*
X828267Y1400353*
X828465Y1400235*
X828660Y1400078*
X828780Y1399881*
X828857Y1399645*
X828897Y1399408*
X828818Y1399172*
X828660Y1398975*
X822007Y1393582*
X821850Y1393503*
X821810Y1393465*
X821692*
X821653Y1393425*
X821613*
X821495*
X808227*
X808070Y1393465*
X807912Y1393503*
X807795Y1393582*
X828475Y1011210D02*
X847293D01*
X853435Y1006248*
Y998925*
X847293Y993925*
X828475*
Y1011210*
X840668Y1407755D02*
X861850Y1428857D01*
Y1407755*
X840668*
X843340Y908930D02*
X862158D01*
X868300Y903970*
Y896647*
X862158Y891647*
X843340*
Y908930*
X844881Y1360630D02*
Y1300786D01*
X854735Y997862D02*
X854852Y997941D01*
X854892Y998138*
X855010Y998335*
Y998531*
Y1006642*
Y1006840*
X854892Y1006957*
Y1007075*
X854852Y1007115*
X854813Y1007155*
X854735Y1007232*
X848041Y1012665*
X847845Y1012745*
X847687Y1012783*
X847530Y1012823*
X827687*
X827333Y1012745*
X827096Y1012547*
X826900Y1012311*
X826821Y1012035*
Y974240*
X826900Y973925*
X827096Y973728*
X827333Y973610*
X827608Y973571*
X827923Y973610*
X828200Y973728*
X828396Y973925*
X828475Y974240*
Y992350*
X846978*
X853435Y974005*
X853593Y973728*
X853868Y973571*
X854183Y973531*
X854420Y973610*
X854655Y973728*
X854852Y973925*
X854970Y974201*
X854892Y974516*
X848435Y992862*
X854735Y997862*
X861850Y1394212D02*
X861890Y1393897D01*
X862086Y1393700*
X862361Y1393582*
X862637Y1393542*
X862912Y1393582*
X863150Y1393700*
X863345Y1393897*
X863425Y1394212*
Y1406141*
X865275*
X865550Y1406220*
X865786Y1406377*
X865905Y1406653*
X865945Y1406928*
X865905Y1407243*
X865786Y1407520*
X865550Y1407716*
X865275Y1407755*
X863425*
Y1430905*
X863385Y1431101*
X863267Y1431260*
X863110Y1431416*
X862912Y1431535*
X862676Y1431613*
X862440Y1431653*
X862243Y1431613*
X862046Y1431456*
X838150Y1407558*
X837991Y1407322*
X837912Y1407086*
X837952Y1406850*
X838110Y1406575*
X838188Y1406377*
X838345Y1406260*
X838503Y1406180*
X838700Y1406141*
X861850*
Y1394212*
X866781Y987783D02*
X887963Y1008886D01*
Y987783*
X866781*
X869600Y895585D02*
X869718Y895662D01*
X869757Y895860*
X869875Y896056*
Y896253*
Y904363*
Y904560*
X869757Y904678*
Y904796*
X869718Y904836*
X869678Y904875*
X869600Y904955*
X862906Y910387*
X862710Y910466*
X862552Y910505*
X862395Y910545*
X842552*
X842198Y910466*
X841962Y910270*
X841765Y910032*
X841686Y909757*
Y871962*
X841765Y871647*
X841962Y871450*
X842198Y871332*
X842473Y871292*
X842788Y871332*
X843065Y871450*
X843261Y871647*
X843340Y871962*
Y890072*
X861843*
X868300Y871725*
X868458Y871450*
X868733Y871292*
X869048Y871253*
X869285Y871332*
X869521Y871450*
X869718Y871647*
X869836Y871922*
X869757Y872237*
X863300Y890585*
X869600Y895585*
X885900Y871332D02*
X879245Y876725D01*
X879048Y876922*
X879010Y877158*
X879048Y877435*
X879206Y877710*
X879403Y877906*
X879640Y878065*
X879915Y878103*
X880190Y878025*
X886607Y872788*
X899325*
X905466Y877750*
Y885072*
X899403Y890072*
X892867*
X892552Y890151*
X892355Y890308*
X892237Y890585*
X892198Y890860*
X892237Y891135*
X892355Y891371*
X892552Y891568*
X892867Y891647*
X899403*
X905466Y896647*
Y903970*
X899325Y908930*
X886607*
X880190Y903695*
X879915Y903615*
X879640Y903655*
X879403Y903773*
X879206Y904010*
X879048Y904245*
X879010Y904521*
X879048Y904796*
X879245Y904993*
X885900Y910387*
X886017Y910426*
X886135Y910466*
X886175Y910505*
X886332Y910545*
X899600*
X899796Y910505*
X899875Y910466*
X899993Y910426*
X900111Y910387*
X906765Y904993*
X906883Y904796*
X906922Y904640*
X907001Y904521*
X907040Y904363*
Y896253*
X907001Y896135*
X906922Y895860*
X906883Y895662*
X906765Y895585*
X900977Y890860*
X906765Y886135*
X906805Y886056*
X906883Y885977*
X906922Y885938*
Y885860*
X907001Y885585*
X907040Y885466*
Y877355*
X907001Y877158*
X906922Y877001*
X906883Y876843*
X906765Y876725*
X900111Y871332*
X899955Y871253*
X899915Y871215*
X899796*
X899757Y871175*
X899718*
X899600*
X886332*
X886175Y871215*
X886017Y871253*
X885900Y871332*
X887963Y974240D02*
X888002Y973925D01*
X888200Y973728*
X888475Y973610*
X888750Y973571*
X889026Y973610*
X889262Y973728*
X889460Y973925*
X889537Y974240*
Y986170*
X891388*
X891663Y986248*
X891900Y986405*
X892018Y986681*
X892057Y986957*
X892018Y987272*
X891900Y987547*
X891663Y987745*
X891388Y987783*
X889537*
Y1010933*
X889498Y1011130*
X889380Y1011287*
X889222Y1011445*
X889026Y1011563*
X888790Y1011642*
X888553Y1011681*
X888356Y1011642*
X888160Y1011485*
X864262Y987587*
X864105Y987350*
X864026Y987115*
X864065Y986878*
X864222Y986602*
X864301Y986405*
X864460Y986287*
X864616Y986210*
X864813Y986170*
X887963*
Y974240*
X1006771Y1854055D02*
X1034940D01*
X1044153Y1846613*
Y1807282*
X1034940Y1799842*
X1006771*
Y1854055*
X1022637Y996062D02*
X992125D01*
Y1051180*
X997046*
X992125*
Y996062*
X1022637*
Y1051180D02*
X1048227D01*
X1022637*
X1036121Y1856240D02*
X1035826Y1856357D01*
X1035590Y1856416*
X1035353Y1856475*
X1005471*
X1005058Y1856357*
X1004705Y1856062*
X1004408Y1855708*
X1004290Y1855295*
Y1798601*
X1004408Y1798130*
X1004705Y1797835*
X1005058Y1797480*
X1005471Y1797420*
X1035353*
X1035590*
X1035708Y1797480*
X1035826Y1797538*
X1036121Y1797656*
X1046101Y1805747*
X1046280Y1805983*
X1046338Y1806101*
X1046456Y1806397*
X1046515Y1806692*
Y1847205*
X1046456Y1847500*
X1046338Y1847676*
Y1847853*
X1046280Y1847912*
X1046160Y1847971*
X1046101Y1848090*
X1036121Y1856240*
X1068660Y1799842D02*
X1068188Y1799723D01*
X1067952Y1799487*
X1067775Y1799075*
X1067716Y1798601*
X1067775Y1798188*
X1067952Y1797775*
X1068188Y1797480*
X1068660Y1797420*
X1091692*
X1092105Y1797480*
X1092460Y1797775*
X1092637Y1798188*
X1092696Y1798601*
X1092637Y1799075*
X1092460Y1799487*
X1092105Y1799723*
X1091692Y1799842*
X1081298*
Y1855295*
X1081240Y1855708*
X1081062Y1856003*
X1080767Y1856180*
X1080353Y1856240*
X1080058Y1856298*
X1079763*
X1079527Y1856180*
X1079290Y1855945*
X1067775Y1839763*
X1067597Y1839350*
Y1838936*
X1067775Y1838582*
X1068070Y1838286*
X1068425Y1838050*
X1068838Y1837932*
X1069075*
X1069251Y1837991*
X1069546Y1838345*
X1078995Y1851575*
Y1799842*
X1068660*
X1078740Y996062D02*
X1048227D01*
X1078740*
Y1051180*
X1073818*
X1078740*
Y996062*
X1095715Y1192800D02*
X1114532D01*
X1120675Y1187840*
Y1180517*
X1114532Y1175517*
X1095715*
Y1192800*
X1121973Y1179455D02*
X1122092Y1179532D01*
X1122131Y1179730*
X1122250Y1179926*
Y1180123*
Y1188233*
Y1188430*
X1122131Y1188548*
Y1188666*
X1122092Y1188706*
X1122052Y1188745*
X1121973Y1188825*
X1115280Y1194257*
X1115085Y1194336*
X1114926Y1194375*
X1114770Y1194415*
X1094926*
X1094572Y1194336*
X1094336Y1194140*
X1094140Y1193903*
X1094060Y1193627*
Y1155832*
X1094140Y1155517*
X1094336Y1155320*
X1094572Y1155202*
X1094847Y1155162*
X1095162Y1155202*
X1095438Y1155320*
X1095635Y1155517*
X1095715Y1155832*
Y1173942*
X1114218*
X1120675Y1155595*
X1120832Y1155320*
X1121107Y1155162*
X1121422Y1155123*
X1121658Y1155202*
X1121895Y1155320*
X1122092Y1155517*
X1122210Y1155792*
X1122131Y1156107*
X1115675Y1174455*
X1121973Y1179455*
X1136737Y1156225D02*
X1136658Y1155950D01*
X1136698Y1155675*
X1136895Y1155438*
X1137092Y1155280*
X1137367Y1155202*
X1137643Y1155162*
X1137880Y1155241*
X1138076Y1155477*
X1159296Y1193233*
X1159375Y1193430*
Y1193588*
Y1193745*
X1159296Y1193903*
X1159178Y1194140*
X1159021Y1194296*
X1158825Y1194375*
X1158627Y1194415*
X1132052*
X1131777Y1194336*
X1131580Y1194140*
X1131422Y1193903*
X1131383Y1193588*
X1131422Y1193312*
X1131580Y1193036*
X1131777Y1192840*
X1132052Y1192800*
X1157288*
X1136737Y1156225*
X1165495Y1134820D02*
X1184313D01*
X1190455Y1129858*
Y1122535*
X1184313Y1117535*
X1165495*
Y1134820*
X1191755Y1121472D02*
X1191872Y1121551D01*
X1191911Y1121748*
X1192030Y1121945*
Y1122142*
Y1130252*
Y1130450*
X1191911Y1130567*
Y1130685*
X1191872Y1130725*
X1191833Y1130765*
X1191755Y1130843*
X1185061Y1136276*
X1184865Y1136355*
X1184707Y1136395*
X1184550Y1136433*
X1164707*
X1164352Y1136355*
X1164116Y1136157*
X1163920Y1135921*
X1163841Y1135646*
Y1097850*
X1163920Y1097535*
X1164116Y1097340*
X1164352Y1097220*
X1164628Y1097181*
X1164943Y1097220*
X1165218Y1097340*
X1165415Y1097535*
X1165495Y1097850*
Y1115961*
X1183998*
X1190455Y1097615*
X1190612Y1097340*
X1190888Y1097181*
X1191203Y1097142*
X1191440Y1097220*
X1191675Y1097340*
X1191872Y1097535*
X1191990Y1097811*
X1191911Y1098126*
X1185455Y1116472*
X1191755Y1121472*
X1202700Y1113677D02*
Y1103638D01*
X1208762Y1098677*
X1221478*
X1227620Y1103638*
Y1113677*
X1221478Y1118677*
X1208762*
X1202700Y1113677*
X1222305Y1136276D02*
X1228920Y1130882D01*
X1229116Y1130685*
X1229155Y1130370*
X1229116Y1130135*
X1229037Y1129937*
X1228920Y1129780*
X1228722Y1129622*
X1228526Y1129505*
X1228330Y1129465*
X1228132*
X1227975Y1129583*
X1221518Y1134820*
X1208762*
X1202700Y1129858*
Y1115725*
X1208053Y1120095*
X1208211Y1120135*
X1208290Y1120173*
X1208330*
Y1120213*
X1208526Y1120252*
X1221793*
X1221951Y1120213*
Y1120173*
X1222030*
X1222148Y1120135*
X1222266Y1120095*
X1228920Y1114740*
X1228960Y1114622*
X1229037Y1114583*
X1229077Y1114543*
Y1114465*
X1229155Y1114190*
X1229195Y1114071*
Y1103245*
X1229155Y1103047*
X1229077Y1102890*
X1229037Y1102732*
X1228920Y1102615*
X1222305Y1097220*
X1222108Y1097142*
X1222070Y1097102*
X1221990*
X1221911Y1097063*
X1221872*
X1221793*
X1208526*
X1208368Y1097102*
X1208211Y1097142*
X1208053Y1097220*
X1201440Y1102615*
X1201360Y1102693*
X1201281Y1102732*
X1201203Y1102850*
X1201125Y1103126*
X1201085Y1103245*
Y1130252*
X1201125Y1130450*
X1201203Y1130606*
X1201281Y1130685*
X1201360Y1130765*
X1201440Y1130882*
X1208053Y1136276*
X1208211Y1136315*
X1208330Y1136355*
X1208368Y1136395*
X1208526Y1136433*
X1221793*
X1221951Y1136395*
X1221990*
X1222030Y1136355*
X1222148Y1136315*
X1222305Y1136276*
X1225230Y885308D02*
X1244048D01*
X1250190Y880347*
Y873025*
X1244048Y868025*
X1225230*
Y885308*
X1251490Y871962D02*
X1251607Y872040D01*
X1251647Y872237*
X1251765Y872435*
Y872631*
Y880741*
Y880938*
X1251647Y881056*
Y881175*
X1251607Y881215*
X1251568Y881253*
X1251490Y881332*
X1244796Y886765*
X1244600Y886843*
X1244442Y886883*
X1244285Y886922*
X1224442*
X1224088Y886843*
X1223851Y886647*
X1223655Y886410*
X1223576Y886135*
Y848340*
X1223655Y848025*
X1223851Y847828*
X1224088Y847710*
X1224363Y847670*
X1224678Y847710*
X1224955Y847828*
X1225151Y848025*
X1225230Y848340*
Y866450*
X1243733*
X1250190Y848103*
X1250347Y847828*
X1250623Y847670*
X1250938Y847631*
X1251175Y847710*
X1251410Y847828*
X1251607Y848025*
X1251725Y848300*
X1251647Y848615*
X1245190Y866962*
X1251490Y871962*
X1268221Y873380D02*
X1268065Y873340D01*
X1267946Y873300*
X1267788Y873221*
X1262435Y868891*
Y885308*
X1288143*
X1288418Y885387*
X1288655Y885545*
X1288773Y885820*
X1288812Y886095*
X1288773Y886410*
X1288655Y886647*
X1288418Y886843*
X1288143Y886922*
X1261568*
X1261292Y886843*
X1261056Y886647*
X1260860Y886410*
X1260780Y886135*
Y867198*
X1260820Y866922*
X1260938Y866725*
X1261095Y866607*
X1261371Y866530*
X1261568Y866450*
X1261725Y866410*
X1261922Y866450*
X1262080Y866568*
X1268497Y871805*
X1281215*
X1287355Y866805*
Y854127*
X1281215Y849206*
X1268497*
X1262080Y854403*
X1261805Y854521*
X1261568*
X1261332Y854363*
X1261095Y854166*
X1260938Y853891*
X1260900Y853615*
X1260938Y853340*
X1261135Y853143*
X1267788Y847710*
X1267906Y847631*
X1268065*
X1268221Y847552*
X1281490*
X1281607*
X1281647Y847592*
X1281686*
X1281765Y847631*
X1281843*
X1282001Y847710*
X1288655Y853143*
X1288773Y853261*
X1288812Y853340*
X1288891Y853576*
X1288930Y853733*
Y867198*
X1288891Y867355*
X1288812Y867592*
Y867670*
X1288773Y867710*
X1288695Y867788*
X1288655Y867867*
X1282001Y873221*
X1281805Y873300*
X1281647Y873340*
X1281490Y873380*
X1268221*
X1346850Y273621D02*
X1602755D01*
Y1454723*
X1346850*
Y273621*
X1351860Y1723190D02*
X1345245Y1728585D01*
X1345048Y1728702*
X1345008Y1728860*
X1344930Y1729017*
X1344890Y1729213*
Y1756221*
X1344930Y1756418*
X1345008Y1756576*
X1345087Y1756655*
X1345127Y1756733*
X1345205Y1756851*
X1351860Y1762245*
X1351977Y1762285*
X1352095Y1762325*
X1352135Y1762363*
X1352292Y1762402*
X1365560*
X1365756Y1762363*
X1365835Y1762325*
X1365953Y1762285*
X1366071Y1762245*
X1372725Y1756851*
X1372882Y1756655*
X1372961Y1756340*
X1372922Y1756103*
X1372843Y1755906*
X1372725Y1755750*
X1372528Y1755591*
X1372331Y1755473*
X1372135Y1755435*
X1371938*
X1371780Y1755552*
X1365285Y1760788*
X1352567*
X1346505Y1755828*
Y1729607*
X1352567Y1724647*
X1365285*
X1371780Y1729883*
X1371938Y1729961*
X1372135Y1730001*
X1372331Y1729961*
X1372528Y1729843*
X1372725Y1729686*
X1372843Y1729490*
X1372922Y1729253*
X1372961Y1729017*
X1372882Y1728780*
X1372725Y1728585*
X1366071Y1723190*
X1365915Y1723111*
X1365875Y1723072*
X1365756*
X1365717Y1723032*
X1365678*
X1365560*
X1352292*
X1352135Y1723072*
X1351977Y1723111*
X1351860Y1723190*
X1352385Y1542130D02*
X1345771Y1547523D01*
X1345575Y1547641*
X1345535Y1547798*
X1345456Y1547956*
X1345417Y1548153*
Y1575161*
X1345456Y1575357*
X1345535Y1575515*
X1345615Y1575595*
X1345653Y1575672*
X1345732Y1575790*
X1352385Y1581185*
X1352503Y1581225*
X1352621Y1581263*
X1352661Y1581302*
X1352818Y1581342*
X1366086*
X1366283Y1581302*
X1366362Y1581263*
X1366480Y1581225*
X1366598Y1581185*
X1373251Y1575790*
X1373410Y1575595*
X1373488Y1575280*
X1373448Y1575042*
X1373370Y1574846*
X1373251Y1574688*
X1373055Y1574531*
X1372858Y1574413*
X1372661Y1574373*
X1372465*
X1372307Y1574491*
X1365810Y1579727*
X1353095*
X1347031Y1574767*
Y1548546*
X1353095Y1543586*
X1365810*
X1372307Y1548822*
X1372465Y1548901*
X1372661Y1548940*
X1372858Y1548901*
X1373055Y1548783*
X1373251Y1548625*
X1373370Y1548428*
X1373448Y1548192*
X1373488Y1547956*
X1373410Y1547720*
X1373251Y1547523*
X1366598Y1542130*
X1366440Y1542050*
X1366401Y1542011*
X1366283*
X1366245Y1541972*
X1366205*
X1366086*
X1352818*
X1352661Y1542011*
X1352503Y1542050*
X1352385Y1542130*
X1388212Y1543586D02*
X1387897Y1543507D01*
X1387740Y1543350*
X1387621Y1543075*
X1387582Y1542760*
X1387621Y1542483*
X1387740Y1542208*
X1387897Y1542011*
X1388212Y1541972*
X1403566*
X1403842Y1542011*
X1404078Y1542208*
X1404196Y1542483*
X1404236Y1542760*
X1404196Y1543075*
X1404078Y1543350*
X1403842Y1543507*
X1403566Y1543586*
X1396637*
Y1580555*
X1396598Y1580830*
X1396480Y1581027*
X1396283Y1581145*
X1396007Y1581185*
X1395810Y1581225*
X1395615*
X1395456Y1581145*
X1395300Y1580987*
X1387621Y1570200*
X1387503Y1569925*
Y1569650*
X1387621Y1569413*
X1387818Y1569216*
X1388055Y1569058*
X1388330Y1568980*
X1388488*
X1388606Y1569020*
X1388803Y1569255*
X1395102Y1578075*
Y1543586*
X1388212*
X1403237Y1762245D02*
X1409851Y1756851D01*
X1409970Y1756655*
X1410008Y1756497*
X1410087Y1756380*
X1410127Y1756221*
Y1750828*
X1410087Y1750670*
X1410008Y1750435*
X1409970Y1750237*
X1409851Y1750158*
X1383630Y1728860*
Y1724647*
X1409340*
X1409615Y1724568*
X1409851Y1724410*
X1409970Y1724135*
X1410008Y1723820*
X1409970Y1723545*
X1409851Y1723270*
X1409615Y1723111*
X1409340Y1723032*
X1382805*
X1382490Y1723111*
X1382292Y1723308*
X1382095Y1723505*
X1382016Y1723820*
Y1729213*
X1382056Y1729332*
X1382135Y1729607*
X1382213Y1729725*
X1382292Y1729805*
X1382371Y1729883*
X1408552Y1751221*
Y1755828*
X1402410Y1760788*
X1389693*
X1383276Y1755552*
X1383001Y1755473*
X1382725Y1755513*
X1382490Y1755631*
X1382331Y1755867*
X1382175Y1756103*
X1382135Y1756380*
Y1756536*
X1382175Y1756655*
X1382371Y1756851*
X1388985Y1762245*
X1389142Y1762285*
X1389260Y1762325*
X1389300Y1762363*
X1389457Y1762402*
X1402725*
X1402882Y1762363*
X1402922*
X1402961Y1762325*
X1403080Y1762285*
X1403237Y1762245*
X1472342Y1535728D02*
X1590452D01*
Y1866436*
X1472342*
Y1535728*
X1640550Y1259842D02*
X1745275D01*
Y1456692*
X1640550*
Y1259842*
X1652825Y875983D02*
X1631890D01*
Y1171260*
X1652825*
X1631890*
Y875983*
X1652825*
X1683975Y1478818D02*
X1671338Y1496731D01*
X1658700Y1478818*
X1658621Y1478660*
X1658465Y1478582*
X1658345Y1478542*
X1658227*
X1657952Y1478621*
X1657716Y1478740*
X1657520Y1478936*
X1657361Y1479172*
X1657322Y1479487*
X1657440Y1479763*
X1670315Y1498150*
X1657440Y1516535*
X1657322Y1516810*
Y1517086*
X1657480Y1517361*
X1657676Y1517558*
X1657952Y1517676*
X1658227Y1517755*
X1658465Y1517716*
X1658700Y1517520*
X1671338Y1499566*
X1683975Y1517520*
X1684172Y1517716*
X1684448Y1517755*
X1684723Y1517676*
X1684960Y1517558*
X1685196Y1517361*
X1685315Y1517086*
X1685353Y1516810*
X1685275Y1516535*
X1672282Y1498150*
X1685275Y1479763*
X1685353Y1479448*
X1685315Y1479172*
X1685196Y1478897*
X1684960Y1478700*
X1684723Y1478542*
X1684448Y1478503*
X1684172Y1478582*
X1683975Y1478818*
X1697205Y1492795D02*
X1718385Y1513897D01*
Y1492795*
X1697205*
X1718385Y1479251D02*
X1718425Y1478936D01*
X1718621Y1478740*
X1718897Y1478621*
X1719172Y1478582*
X1719448Y1478621*
X1719685Y1478740*
X1719881Y1478936*
X1719960Y1479251*
Y1491180*
X1721810*
X1722086Y1491260*
X1722322Y1491416*
X1722440Y1491692*
X1722480Y1491968*
X1722440Y1492282*
X1722322Y1492558*
X1722086Y1492755*
X1721810Y1492795*
X1719960*
Y1515945*
X1719920Y1516141*
X1719802Y1516298*
X1719645Y1516456*
X1719448Y1516575*
X1719212Y1516653*
X1718975Y1516692*
X1718780Y1516653*
X1718582Y1516495*
X1694685Y1492597*
X1694527Y1492361*
X1694448Y1492125*
X1694487Y1491890*
X1694645Y1491613*
X1694723Y1491416*
X1694881Y1491298*
X1695038Y1491220*
X1695235Y1491180*
X1718385*
Y1479251*
X1778780Y1322322D02*
X1785353Y1316928D01*
X1785550Y1316731*
X1785708Y1316534*
X1785786Y1316259*
X1785826Y1315983*
X1785786Y1315668*
X1785630Y1315353*
X1785432Y1315078*
X1785117Y1314842*
X1784723Y1314684*
X1784408Y1314605*
X1784055Y1314645*
X1783700Y1314802*
X1777520Y1319802*
X1765511*
X1759920Y1315235*
Y1290038*
X1765511Y1285511*
X1777558*
X1783188Y1290078*
Y1298700*
X1777991*
X1777716Y1298740*
X1777440Y1298818*
X1777243Y1298936*
X1777086Y1299133*
X1776850Y1299566*
X1776771Y1300000*
X1776850Y1300471*
X1777086Y1300905*
X1777243Y1301101*
X1777440Y1301220*
X1777716Y1301298*
X1777991Y1301338*
X1784487*
X1784802Y1301298*
X1785078Y1301220*
X1785315Y1301101*
X1785471Y1300905*
X1785668Y1300708*
X1785786Y1300511*
X1785826Y1300275*
X1785865Y1300000*
Y1289408*
Y1289212*
X1785826Y1289055*
X1785786Y1288936*
X1785747Y1288857*
X1785708Y1288660*
X1785630Y1288542*
X1785511Y1288385*
X1785315Y1288306*
X1778818Y1283030*
X1778542Y1282873*
X1778465Y1282835*
X1778425*
X1778345Y1282795*
X1778227*
X1777991*
X1765000*
X1764723*
X1764605Y1282835*
X1764408Y1282912*
X1764172Y1283070*
X1757716Y1288345*
X1757520Y1288465*
X1757440Y1288582*
X1757322Y1288740*
X1757282Y1288975*
X1757205Y1289133*
X1757165Y1289408*
Y1315905*
X1757205Y1316219*
X1757282Y1316416*
X1757322Y1316456*
X1757361Y1316574*
X1757480Y1316731*
X1757637Y1316928*
X1764290Y1322322*
Y1321890*
Y1321575*
Y1321377*
X1764251Y1321338*
X1764408Y1321850*
X1764605Y1322205*
X1764802Y1322440*
X1765000Y1322520*
X1777991*
X1778188*
X1778345Y1322480*
X1778465Y1322440*
X1778503Y1322361*
X1778582*
X1778780Y1322322*
X1779566Y1410393D02*
X1779881Y1410432D01*
X1780156Y1410511*
X1780353Y1410630*
X1780511Y1410865*
X1780708Y1411298*
X1780747Y1411731*
X1780708Y1412125*
X1780511Y1412558*
X1780353Y1412755*
X1780156Y1412912*
X1779881Y1412991*
X1779566Y1413030*
X1770630*
Y1421968*
X1770590Y1422243*
X1770511Y1422480*
X1770393Y1422716*
X1770196Y1422873*
X1769763Y1423110*
X1769251Y1423188*
X1768818Y1423110*
X1768385Y1422873*
X1768188Y1422716*
X1768070Y1422520*
X1767991Y1422243*
Y1421968*
Y1413030*
X1758975*
X1758700Y1412991*
X1758425Y1412912*
X1758227Y1412795*
X1758070Y1412597*
X1757912Y1412125*
X1757835Y1411731*
X1757912Y1411260*
X1758070Y1410826*
X1758227Y1410630*
X1758425Y1410511*
X1758700Y1410432*
X1758975Y1410393*
X1767991*
Y1401456*
Y1401180*
X1768070Y1400905*
X1768188Y1400708*
X1768385Y1400550*
X1768780Y1400315*
X1769251Y1400235*
X1769763Y1400315*
X1770000Y1400393*
X1770196Y1400550*
X1770393Y1400708*
X1770511Y1400945*
X1770590Y1401180*
X1770630Y1401456*
Y1410393*
X1779566*
X1794330Y1284093D02*
Y1283818D01*
X1794408Y1283542*
X1794566Y1283345*
X1794763Y1283188*
X1795196Y1282952*
X1795630Y1282912*
X1796141Y1282952*
X1796613Y1283188*
X1796810Y1283345*
X1796968Y1283582*
X1797046Y1283818*
Y1284093*
Y1318149*
X1820590Y1283345*
X1820865Y1283110*
X1821180Y1282952*
X1821535Y1282912*
X1821968Y1282952*
X1822440Y1283110*
X1822755Y1283345*
X1822991Y1283660*
X1823030Y1284093*
Y1321180*
Y1321456*
X1822912Y1321692*
X1822795Y1321928*
X1822597Y1322086*
X1822125Y1322322*
X1821692Y1322401*
X1821220Y1322322*
X1820786Y1322086*
X1820590Y1321928*
X1820471Y1321731*
X1820393Y1321456*
X1820353Y1321180*
Y1287165*
X1796771Y1321968*
X1796456Y1322205*
X1796101Y1322322*
X1795786Y1322361*
X1795471Y1322322*
X1794960Y1322243*
X1794605Y1322046*
X1794408Y1321692*
X1794330Y1321180*
Y1284093*
X1799645Y1421416D02*
X1799370D01*
X1799251Y1421377*
X1799212*
X1799172Y1421338*
X1799055Y1421260*
X1798897Y1421180*
X1794527Y1417007*
Y1432007*
X1819172*
X1819448Y1432046*
X1819723Y1432125*
X1819960Y1432282*
X1820117Y1432480*
X1820353Y1432912*
X1820393Y1433345*
X1820353Y1433818*
X1820117Y1434251*
X1819920Y1434448*
X1819723Y1434605*
X1819448Y1434685*
X1819172Y1434723*
X1793110*
X1792835Y1434685*
X1792597Y1434605*
X1792361Y1434448*
X1792205Y1434290*
X1792046Y1434133*
X1791890Y1433936*
X1791810Y1433660*
Y1433385*
Y1414802*
X1791850Y1414370*
X1792007Y1414015*
X1792322Y1413780*
X1792716Y1413621*
X1793030Y1413542*
X1793345*
X1793660Y1413621*
X1793975Y1413780*
X1800117Y1418780*
X1812165*
X1817835Y1414172*
Y1402282*
X1812165Y1397716*
X1800117*
X1793975Y1402716*
X1793700Y1402835*
X1793465Y1402912*
X1793188*
X1792952Y1402873*
X1792558Y1402676*
X1792205Y1402361*
X1792007Y1401968*
X1791890Y1401456*
Y1401180*
X1791968Y1400945*
X1792125Y1400747*
X1792322Y1400590*
X1798780Y1395315*
X1799015Y1395117*
X1799212Y1395078*
X1799370Y1395038*
X1799645Y1395000*
X1812637*
X1812795*
X1812952*
X1812991Y1395038*
X1813030*
X1813070Y1395078*
X1813110*
X1813188Y1395117*
X1813306Y1395156*
X1813465Y1395275*
X1820078Y1400630*
X1820235Y1400786*
X1820315Y1400905*
X1820393Y1401023*
Y1401141*
X1820511Y1401338*
Y1401613*
Y1414802*
Y1415078*
X1820393Y1415315*
Y1415550*
X1820275Y1415708*
X1820196Y1415747*
X1820117Y1415786*
X1813465Y1421180*
X1813306Y1421260*
X1813150Y1421338*
X1813070Y1421377*
X1813030*
X1812952Y1421416*
X1812637*
X1799645*
X1834290Y1319802D02*
X1851928D01*
X1857597Y1315235*
Y1290078*
X1851928Y1285511*
X1834290*
Y1319802*
X1845038Y1395000D02*
X1843975D01*
X1843542Y1395038*
X1843227Y1395235*
X1842991Y1395353*
X1842835Y1395511*
X1842755Y1395747*
X1842716Y1395983*
X1830235Y1432912*
X1830196Y1433227*
Y1433503*
X1830275Y1433740*
X1830393Y1433936*
X1830708Y1434251*
X1831141Y1434487*
X1831575Y1434566*
X1832086Y1434487*
X1832322Y1434408*
X1832520Y1434251*
X1832676Y1434055*
X1832795Y1433780*
X1844487Y1397755*
X1856260Y1433780*
X1856377Y1434055*
X1856535Y1434251*
X1856731Y1434408*
X1856968Y1434527*
X1857480Y1434566*
X1857912Y1434487*
X1858345Y1434251*
X1858660Y1433936*
X1858780Y1433700*
X1858818Y1433465*
Y1433227*
X1858780Y1432912*
X1846338Y1395945*
X1846260Y1395708*
X1846141Y1395511*
X1845983Y1395353*
X1845786Y1395235*
X1845471Y1395038*
X1845038Y1395000*
X1853227Y1322243D02*
X1853070Y1322322D01*
X1852912Y1322401*
X1852835Y1322440*
X1852795Y1322480*
X1852716*
X1852401Y1322520*
X1832873*
X1832597Y1322480*
X1832361Y1322401*
X1832125Y1322243*
X1831968Y1322086*
X1831810Y1321928*
X1831653Y1321731*
X1831575Y1321456*
Y1321180*
Y1284093*
Y1283818*
X1831653Y1283582*
X1831810Y1283345*
X1831968Y1283227*
X1832125Y1283030*
X1832322Y1282912*
X1832597Y1282835*
X1832873Y1282795*
X1852401*
X1852597*
X1852755*
X1852835Y1282835*
X1852873*
Y1282873*
X1852952*
X1853070Y1282952*
X1853227Y1283030*
X1859842Y1288425*
X1860000Y1288582*
X1860078Y1288700*
X1860156Y1288818*
Y1288897*
X1860275Y1289133*
Y1289408*
Y1315865*
Y1316062*
Y1316219*
X1860156Y1316416*
Y1316613*
X1860038Y1316692*
X1859960Y1316771*
X1859881Y1316810*
X1853227Y1322243*
X1887795Y956692D02*
X2064960D01*
Y1090550*
X1887795*
Y956692*
Y875983D02*
X1729065D01*
X1887795*
Y1171260*
X1729065*
X1887795*
Y875983*
G54D14*
X719822Y775196D02*
X719881Y774901D01*
X720000Y774665*
X720117Y774428*
X720353Y774251*
X730335Y766160*
X730511Y766042*
X730747Y765983*
X730983Y765925*
X750885*
X751121*
X751240Y765983*
X751357Y766042*
X751653Y766160*
X761633Y774251*
X761810Y774428*
X761870Y774665*
X761987Y774901*
X762046Y775196*
Y823798*
X761928Y824212*
X761633Y824566*
X761280Y824743*
X760865Y824802*
X760452Y824743*
X760038Y824566*
X759743Y824212*
X759685Y823798*
Y775786*
X750471Y768345*
X731397*
X722302Y775786*
Y823798*
X722185Y824212*
X721890Y824566*
X721475Y824743*
X721003Y824802*
X720590Y824743*
X720235Y824566*
X719940Y824212*
X719822Y823798*
Y775196*
X807520Y824743D02*
X817440Y816653D01*
X817617Y816357*
X817676Y816121*
X817795Y815945*
X817853Y815708*
Y807617*
X817795Y807381*
X817676Y807027*
X817617Y806731*
X817440Y806613*
X778110Y774665*
Y768345*
X816672*
X817086Y768227*
X817440Y767991*
X817617Y767578*
X817676Y767105*
X817617Y766692*
X817440Y766280*
X817086Y766042*
X816672Y765925*
X776870*
X776397Y766042*
X776101Y766338*
X775806Y766633*
X775688Y767105*
Y775196*
X775747Y775373*
X775865Y775786*
X775983Y775965*
X776101Y776082*
X776220Y776200*
X815491Y808208*
Y815117*
X806280Y822558*
X787205*
X777578Y814705*
X777165Y814586*
X776751Y814645*
X776397Y814822*
X776160Y815176*
X775925Y815530*
X775865Y815945*
Y816180*
X775925Y816357*
X776220Y816653*
X786141Y824743*
X786377Y824802*
X786555Y824861*
X786613Y824920*
X786850Y824980*
X806751*
X806987Y824920*
X807046*
X807105Y824861*
X807282Y824802*
X807520Y824743*
X1246416Y975590D02*
X1246475Y975295D01*
X1246593Y975058*
X1246712Y974822*
X1246948Y974645*
X1256928Y966555*
X1257105Y966436*
X1257342Y966377*
X1257578Y966318*
X1277480*
X1277716*
X1277835Y966377*
X1277952Y966436*
X1278247Y966555*
X1288227Y974645*
X1288405Y974822*
X1288465Y975058*
X1288582Y975295*
X1288641Y975590*
Y1024192*
X1288523Y1024605*
X1288227Y1024960*
X1287873Y1025137*
X1287460Y1025196*
X1287046Y1025137*
X1286633Y1024960*
X1286338Y1024605*
X1286280Y1024192*
Y976180*
X1277066Y968740*
X1257991*
X1248897Y976180*
Y1024192*
X1248780Y1024605*
X1248483Y1024960*
X1248070Y1025137*
X1247597Y1025196*
X1247185Y1025137*
X1246830Y1024960*
X1246535Y1024605*
X1246416Y1024192*
Y975590*
X1310786Y968740D02*
X1310315Y968621D01*
X1310078Y968385*
X1309901Y967971*
X1309842Y967500*
X1309901Y967086*
X1310078Y966672*
X1310315Y966377*
X1310786Y966318*
X1333818*
X1334231Y966377*
X1334586Y966672*
X1334763Y967086*
X1334822Y967500*
X1334763Y967971*
X1334586Y968385*
X1334231Y968621*
X1333818Y968740*
X1323425*
Y1024192*
X1323365Y1024605*
X1323188Y1024901*
X1322893Y1025078*
X1322480Y1025137*
X1322185Y1025196*
X1321890*
X1321653Y1025078*
X1321416Y1024842*
X1309901Y1008660*
X1309723Y1008247*
Y1007835*
X1309901Y1007480*
X1310196Y1007185*
X1310550Y1006948*
X1310964Y1006830*
X1311200*
X1311377Y1006890*
X1311672Y1007243*
X1321121Y1020471*
Y968740*
X1310786*
X1710803Y1224431D02*
X1717535Y1218960D01*
X1717655Y1218801*
X1717772Y1218645*
X1717850Y1218486*
Y1218330*
X1717890Y1218171*
X1717930Y1218093*
X1717970Y1218015*
Y1209982*
X1717930Y1209785*
X1717850Y1209510*
Y1209392*
X1717772Y1209275*
X1717655Y1209156*
X1717535Y1208998*
X1710921Y1203605*
X1710646Y1203447*
X1710567Y1203408*
X1710528*
X1710450Y1203368*
X1710331*
X1710095*
X1697102*
X1696827*
X1696710Y1203408*
X1696512Y1203486*
X1696276Y1203645*
X1689780Y1208960*
X1689583Y1209116*
X1689425Y1209313*
X1689346Y1209550*
Y1209785*
X1689425Y1210258*
X1689622Y1210691*
X1689937Y1211006*
X1690370Y1211203*
X1690646Y1211282*
X1690921*
X1691197Y1211203*
X1691472Y1211085*
X1697615Y1206085*
X1709661*
X1715291Y1210652*
Y1217266*
X1709622Y1221911*
X1697102*
X1696670*
Y1221951*
X1696748*
X1696472Y1222030*
X1696236Y1222187*
X1689820Y1227423*
X1689622Y1227541*
X1689543Y1227620*
X1689425Y1227817*
X1689307Y1228250*
X1689268Y1228526*
Y1236478*
X1689346Y1236872*
X1689543Y1237187*
Y1237226*
X1689622Y1237305*
X1689740Y1237502*
X1696395Y1242896*
Y1242463*
Y1242148*
Y1241951*
X1696355Y1241911*
X1696551Y1242423*
X1696710Y1242778*
X1696906Y1243015*
X1697102Y1243093*
X1710095*
X1710291*
X1710450Y1243053*
X1710567Y1243015*
X1710646Y1242935*
X1710685*
X1710882Y1242896*
X1715843Y1238801*
X1716040Y1238645*
X1716197Y1238447*
X1716276Y1238211*
X1716315Y1237935*
X1716236Y1237502*
X1716040Y1237108*
X1715725Y1236793*
X1715252Y1236557*
X1715016Y1236518*
X1714740*
X1714465Y1236557*
X1714150Y1236675*
X1709661Y1240376*
X1697615*
X1692025Y1235810*
Y1229156*
X1697615Y1224550*
X1710095*
X1710410*
X1710528Y1224510*
X1710567Y1224470*
X1710646Y1224431*
X1710803*
X1729228Y1223408D02*
X1747142D01*
X1752535Y1217385*
Y1210573*
X1747300Y1206085*
X1729228*
Y1223408*
Y1240376D02*
X1747220D01*
X1751197Y1235927*
Y1229235*
X1747340Y1226085*
X1729228*
Y1240376*
X1753953Y1236911D02*
X1748756Y1242700D01*
X1748560Y1242856*
X1748323Y1242975*
X1748087Y1243053*
X1747850Y1243093*
X1727811*
X1727575Y1243053*
X1727340Y1242975*
X1727102Y1242856*
X1726906Y1242660*
X1726748Y1242463*
X1726591Y1242226*
X1726512Y1241990*
Y1241755*
Y1224865*
Y1224746*
Y1224667*
Y1204667*
Y1204431*
X1726591Y1204195*
X1726710Y1203960*
X1726906Y1203762*
X1727102Y1203605*
X1727340Y1203447*
X1727575Y1203368*
X1727811*
X1748283*
X1754858Y1209077*
X1755016Y1209275*
X1755135Y1209470*
X1755213Y1209707*
Y1209982*
Y1218447*
X1749543Y1224590*
X1753441Y1227502*
X1753638Y1227738*
X1753795Y1228015*
X1753913Y1228330*
X1753953Y1228565*
Y1236911*
X1769858Y1206045D02*
X1769583D01*
X1769307Y1205967*
X1769110Y1205810*
X1768953Y1205612*
X1768756Y1205140*
X1768717Y1204667*
X1768756Y1204235*
X1768953Y1203801*
X1769110Y1203605*
X1769307Y1203486*
X1769543Y1203408*
X1769858Y1203368*
X1784937*
X1785213Y1203408*
X1785488Y1203486*
X1785725Y1203605*
X1785882Y1203801*
X1786118Y1204235*
X1786158Y1204667*
X1786118Y1205140*
X1785882Y1205612*
X1785725Y1205810*
X1785488Y1205967*
X1785213Y1206045*
X1784937*
X1778717*
Y1241755*
X1778677Y1242266*
X1778441Y1242620*
X1778087Y1242817*
X1777615Y1242896*
X1777260Y1242935*
X1776945Y1242896*
X1776670Y1242738*
X1776395Y1242541*
X1768875Y1231951*
X1768756Y1231675*
X1768638Y1231440*
Y1231203*
X1768677Y1230967*
X1768835Y1230533*
X1769110Y1230220*
X1769505Y1229982*
X1770055Y1229865*
X1770331*
X1770567Y1229943*
X1770765Y1230100*
X1770921Y1230258*
X1776118Y1238762*
Y1206045*
X1769858*
X1835011Y1508905D02*
X1823042Y1526306D01*
X1811153Y1508945*
X1810956Y1508747*
X1810720Y1508590*
X1810483Y1508511*
X1810208Y1508471*
X1809735Y1508550*
X1809341Y1508786*
X1809066Y1509062*
X1808870Y1509495*
X1808790Y1509731*
X1808830Y1510007*
X1808870Y1510283*
X1808987Y1510558*
X1821507Y1528235*
X1809027Y1545873*
X1808908Y1546110*
X1808830Y1546385*
X1808790Y1546660*
X1808830Y1546897*
X1809027Y1547370*
X1809341Y1547723*
X1809735Y1547920*
X1810208Y1548000*
X1810483*
X1810720Y1547920*
X1810956Y1547763*
X1811153Y1547527*
X1823042Y1530165*
X1835011Y1547566*
X1835168Y1547763*
X1835365Y1547920*
X1835601Y1548000*
X1835838*
X1836350Y1547920*
X1836782Y1547723*
X1837097Y1547370*
X1837335Y1546936*
X1837373Y1546660*
X1837335Y1546425*
X1837295Y1546150*
X1837137Y1545873*
X1824578Y1528235*
X1837176Y1510558*
X1837295Y1510283*
X1837373Y1510007*
Y1509731*
X1837335Y1509456*
X1837097Y1509023*
X1836743Y1508708*
X1836350Y1508511*
X1835877Y1508432*
X1835601Y1508471*
X1835365Y1508550*
X1835168Y1508708*
X1835011Y1508905*
X1852058Y1511070D02*
X1851782D01*
X1851507Y1510991*
X1851310Y1510835*
X1851153Y1510637*
X1850956Y1510165*
X1850916Y1509692*
X1850956Y1509260*
X1851153Y1508826*
X1851310Y1508630*
X1851507Y1508511*
X1851743Y1508432*
X1852058Y1508393*
X1867137*
X1867412Y1508432*
X1867688Y1508511*
X1867925Y1508630*
X1868082Y1508826*
X1868318Y1509260*
X1868357Y1509692*
X1868318Y1510165*
X1868082Y1510637*
X1867925Y1510835*
X1867688Y1510991*
X1867412Y1511070*
X1867137*
X1860916*
Y1546780*
X1860877Y1547290*
X1860641Y1547645*
X1860286Y1547842*
X1859815Y1547920*
X1859460Y1547960*
X1859145Y1547920*
X1858870Y1547763*
X1858593Y1547566*
X1851075Y1536975*
X1850956Y1536700*
X1850838Y1536465*
Y1536227*
X1850877Y1535991*
X1851035Y1535558*
X1851310Y1535243*
X1851705Y1535007*
X1852255Y1534890*
X1852530*
X1852767Y1534968*
X1852965Y1535125*
X1853121Y1535283*
X1858318Y1543786*
Y1511070*
X1852058*
G54D15*
X1417142Y1822030D02*
X1404505Y1839945D01*
X1391866Y1822030*
X1391787Y1821873*
X1391630Y1821795*
X1391512Y1821755*
X1391395*
X1391118Y1821833*
X1390882Y1821952*
X1390685Y1822148*
X1390527Y1822385*
X1390488Y1822700*
X1390606Y1822975*
X1403480Y1841361*
X1390606Y1859747*
X1390488Y1860022*
Y1860298*
X1390645Y1860575*
X1390842Y1860770*
X1391118Y1860890*
X1391395Y1860967*
X1391630Y1860928*
X1391866Y1860731*
X1404505Y1842778*
X1417142Y1860731*
X1417338Y1860928*
X1417615Y1860967*
X1417890Y1860890*
X1418126Y1860770*
X1418362Y1860575*
X1418480Y1860298*
X1418520Y1860022*
X1418441Y1859747*
X1405450Y1841361*
X1418441Y1822975*
X1418520Y1822660*
X1418480Y1822385*
X1418362Y1822110*
X1418126Y1821912*
X1417890Y1821755*
X1417615Y1821715*
X1417338Y1821795*
X1417142Y1822030*
X1448875Y1860890D02*
X1455488Y1855495D01*
X1455606Y1855298*
X1455645Y1855141*
X1455725Y1855022*
X1455765Y1854865*
Y1849471*
X1455725Y1849315*
X1455645Y1849078*
X1455606Y1848881*
X1455488Y1848802*
X1429268Y1827503*
Y1823290*
X1454976*
X1455252Y1823211*
X1455488Y1823055*
X1455606Y1822778*
X1455645Y1822463*
X1455606Y1822188*
X1455488Y1821912*
X1455252Y1821755*
X1454976Y1821676*
X1428441*
X1428126Y1821755*
X1427930Y1821952*
X1427732Y1822148*
X1427653Y1822463*
Y1827857*
X1427693Y1827975*
X1427771Y1828251*
X1427850Y1828370*
X1427930Y1828448*
X1428008Y1828526*
X1454190Y1849865*
Y1854471*
X1448047Y1859432*
X1435331*
X1428913Y1854196*
X1428638Y1854117*
X1428362Y1854156*
X1428126Y1854275*
X1427968Y1854511*
X1427811Y1854747*
X1427771Y1855022*
Y1855180*
X1427811Y1855298*
X1428008Y1855495*
X1434622Y1860890*
X1434780Y1860928*
X1434897Y1860967*
X1434937Y1861007*
X1435095Y1861046*
X1448362*
X1448520Y1861007*
X1448560*
X1448598Y1860967*
X1448716Y1860928*
X1448875Y1860890*
G54D16*
X980315Y1466535D02*
X1122046D01*
Y1730315*
X980315*
Y1466535*
M02*
