*
G04 Job   : Z:\Rest\ESPto433\V2\PCB\V2.pcb*
G04 User  : DESKTOP-K7BKDL1:life*
G04 Layer : SoldermaskTop.gbr*
G04 Date  : Mon Oct 04 20:14:53 2021*
%ICAS*%
%MOIN*%
%FSLAX26Y26*%
%OFA0.0000B0.0000*%
G90*
G74*
%AMVB_RECTANGLE*
21,1,$1,$2,0,0,$3*
%
%ADD21C,0.03937*%
%ADD14C,0.06102*%
%ADD70C,0.06693*%
%ADD10C,0.07874*%
%ADD22O,0.09055X0.05118*%
%ADD13VB_RECTANGLE,0.06102X0.06102X180.00000*%
%ADD19VB_RECTANGLE,0.06693X0.06693X90.00000*%
%ADD11VB_RECTANGLE,0.07874X0.07874X270.00000*%
%ADD23VB_RECTANGLE,0.01811X0.05394X90.00000*%
%ADD27VB_RECTANGLE,0.03898X0.07520X90.00000*%
%ADD15VB_RECTANGLE,0.04535X0.04929X90.00000*%
%ADD17VB_RECTANGLE,0.05118X0.02559X270.00000*%
%ADD20VB_RECTANGLE,0.05323X0.09260X90.00000*%
%ADD24VB_RECTANGLE,0.05591X0.06102X90.00000*%
%ADD25VB_RECTANGLE,0.06496X0.05079X90.00000*%
%ADD18VB_RECTANGLE,0.06504X0.05717X180.00000*%
%ADD16VB_RECTANGLE,0.06504X0.05717X90.00000*%
%ADD26VB_RECTANGLE,0.07087X0.07520X90.00000*%
%ADD12VB_RECTANGLE,0.11811X0.17323X0.00000*%
%ADD71VB_RECTANGLE,0.14772X0.09260X90.00000*%
G01*
G54D10*
X74870Y797216D03*
Y897216D03*
Y997216D03*
Y1097216D03*
Y1197216D03*
X1690945Y885826D03*
Y1161416D03*
X1692912Y1308267D03*
G54D11*
X74870Y1297216D03*
X1692912Y1408267D03*
G54D12*
X943113Y1330708D03*
X1230113D03*
G54D13*
X387795Y1405511D03*
G54D14*
X250000D03*
G54D15*
X1761775Y787401D03*
X1828775D03*
G54D16*
X276540Y817720D03*
Y939767D03*
X351540Y817720D03*
Y939767D03*
X445830D03*
X520830D03*
X958562Y885826D03*
Y1169290D03*
X1033562Y885826D03*
Y1169290D03*
X1182971Y787401D03*
X1257971D03*
G54D17*
X1009842Y1066928D03*
X1035432Y980315D03*
X1061023Y1066928D03*
G54D18*
X866141Y1096357D03*
Y1171357D03*
X1287401Y1092420D03*
Y1167420D03*
X1295275Y1690845D03*
Y1765845D03*
X1299212Y1517617D03*
Y1592617D03*
G54D19*
X566396Y1086716D03*
X1425590Y340945D03*
X1789370Y935038D03*
G54D20*
X1173227Y1507873D03*
Y1598425D03*
Y1688975D03*
G54D21*
X1515520Y1649785D03*
Y1700967D03*
Y1752148D03*
X1554951Y1675488D03*
Y1726670D03*
G54D22*
X1546358Y1560137D03*
Y1841633D03*
G54D23*
X1670070Y1651575D03*
Y1677165D03*
Y1702755D03*
Y1728345D03*
Y1753936D03*
G54D24*
X1673416Y1604822D03*
Y1800688D03*
G54D25*
X1774795Y1569881D03*
Y1835630D03*
G54D26*
Y1657480D03*
G54D27*
Y1763755D03*
G54D70*
X266396Y1086716D03*
Y1186716D03*
X366396Y1086716D03*
Y1186716D03*
X466396Y1086716D03*
Y1186716D03*
X566396D03*
X1425590Y440945D03*
X1425658Y1099930D03*
Y1199930D03*
Y1299930D03*
Y1399930D03*
X1789370Y1112205D03*
G54D71*
X929133Y1598425D03*
M02*
