; Version : LOCAL
; Job     : Z:\Rest\ESPto433\V2\PCB\V2.pcb
; User    : DESKTOP-K7BKDL1:life
; Date    : Mon Oct 04 20:03:48 2021
; Format  : 3.3 / Absolute / MM / Leading
; Contents: Thru / Drill / Plated
M48
METRIC,TZ
FMAT,2
ICI,OFF
T05C0.5000
T07C0.5000
T02C0.8500
T04C1.0000
T01C1.0000
T03C1.3000
%
M71
G90
G93X0Y0
T05
X39496Y42557
X38494Y41905
Y43205
Y44505
X39496Y43857
T07
X22007Y26339
X19780Y28880
X31243Y31048
X19780Y30535
X33301Y33789
X33007Y37220
X29826Y37046
X42509Y39398
X46439Y39874
X46692Y42101
X31451Y44906
X40997Y44314
X46754Y44901
X46387Y46661
X42563Y47105
X32901Y46185
T02
X9850Y35700
X6350
T01
X1902Y20249
Y22789
Y25329
Y27869
Y30409
Y32949
X43000Y33230
Y35770
T04
X36210Y8660
Y11200
X45450Y23750
X36212Y27938
X14386Y27603
X11846
X9306
X6766
Y30143
X9306
X11846
X14386
X36212Y30478
X45450Y28250
X36212Y33018
Y35558
T03
X42950Y22500
Y29500
T00
M30
